999
dxflib 3.7.5.0
  0
SECTION
  2
HEADER
  9
$ACADVER
  1
AC1015
  9
$HANDSEED
  5
FFFF
  9
$DIMADEC
 70
0
  9
$DIMASZ
 40
0.125
  9
$DIMAUNIT
 70
0
  9
$DIMAZIN
 70
2
  9
$DIMDEC
 70
4
  9
$DIMEXE
 40
0.0625
  9
$DIMEXO
 40
0.03125
  9
$DIMGAP
 40
0.03125
  9
$DIMLUNIT
 70
3
  9
$DIMSCALE
 40
1.0
  9
$DIMTSZ
 40
0.0
  9
$DIMTXT
 40
0.125
  9
$DIMZIN
 70
8
  9
$DWGCODEPAGE
  3
ANSI_1252
  9
$INSUNITS
 70
1
  9
$LTSCALE
 40
1.0
  9
$PDMODE
 70
0
  9
$PDSIZE
 40
0
  0
ENDSEC
  0
SECTION
  2
TABLES
  0
TABLE
  2
VPORT
  5
8
100
AcDbSymbolTable
 70
1
  0
VPORT
  5
30
100
AcDbSymbolTableRecord
100
AcDbViewportTableRecord
  2
*Active
 70
0
 10
0.0
 20
0.0
 11
1.0
 21
1.0
 12
286.3055555555554861
 22
148.5
 13
0.0
 23
0.0
 14
10.0
 24
10.0
 15
10.0
 25
10.0
 16
0.0
 26
0.0
 36
1.0
 17
0.0
 27
0.0
 37
0.0
 40
297.0
 41
1.92798353909465
 42
50.0
 43
0.0
 44
0.0
 50
0.0
 51
0.0
 71
0
 72
100
 73
1
 74
3
 75
1
 76
1
 77
0
 78
0
281
0
 65
1
110
0.0
120
0.0
130
0.0
111
1.0
121
0.0
131
0.0
112
0.0
122
1.0
132
0.0
 79
0
146
0.0
  0
ENDTAB
  0
TABLE
  2
LTYPE
  5
5
100
AcDbSymbolTable
 70
41
  0
LTYPE
  5
16
100
AcDbSymbolTableRecord
100
AcDbLinetypeTableRecord
  2
Continuous
 70
0
  3
Solid line
 72
65
 73
0
 40
0.0
  0
LTYPE
  5
31
100
AcDbSymbolTableRecord
100
AcDbLinetypeTableRecord
  2
ACAD_ISO15W100
 70
0
  3
ISO double-dash triple-dot __ __ . . . __ __ . .
 72
65
 73
10
 40
39.0
 49
12.0
 74
0
 49
-3.0
 74
0
 49
12.0
 74
0
 49
-3.0
 74
0
 49
0.0
 74
0
 49
-3.0
 74
0
 49
0.0
 74
0
 49
-3.0
 74
0
 49
0.0
 74
0
 49
-3.0
 74
0
  0
LTYPE
  5
32
100
AcDbSymbolTableRecord
100
AcDbLinetypeTableRecord
  2
DIVIDE
 70
0
  3
Divide ____ . . ____ . . ____ . . ____ . . ____
 72
65
 73
6
 40
31.75
 49
12.6999999999999993
 74
0
 49
-6.3499999999999996
 74
0
 49
0.0
 74
0
 49
-6.3499999999999996
 74
0
 49
0.0
 74
0
 49
-6.3499999999999996
 74
0
  0
LTYPE
  5
33
100
AcDbSymbolTableRecord
100
AcDbLinetypeTableRecord
  2
ACAD_ISO10W100
 70
0
  3
ISO dash dot __ . __ . __ . __ . __ . __ . __ . 
 72
65
 73
4
 40
18.0
 49
12.0
 74
0
 49
-3.0
 74
0
 49
0.0
 74
0
 49
-3.0
 74
0
  0
LTYPE
  5
34
100
AcDbSymbolTableRecord
100
AcDbLinetypeTableRecord
  2
ACAD_ISO04W100
 70
0
  3
ISO long-dash dot ____ . ____ . ____ . ____ . _
 72
65
 73
4
 40
30.0
 49
24.0
 74
0
 49
-3.0
 74
0
 49
0.0
 74
0
 49
-3.0
 74
0
  0
LTYPE
  5
35
100
AcDbSymbolTableRecord
100
AcDbLinetypeTableRecord
  2
CENTER2
 70
0
  3
Center (.5x) ___ _ ___ _ ___ _ ___ _ ___ _ ___
 72
65
 73
4
 40
28.5750000000000028
 49
19.0500000000000007
 74
0
 49
-3.1749999999999998
 74
0
 49
3.1749999999999998
 74
0
 49
-3.1749999999999998
 74
0
  0
LTYPE
  5
36
100
AcDbSymbolTableRecord
100
AcDbLinetypeTableRecord
  2
ACAD_ISO11W100
 70
0
  3
ISO double-dash dot __ __ . __ __ . __ __ . __ _
 72
65
 73
6
 40
33.0
 49
12.0
 74
0
 49
-3.0
 74
0
 49
12.0
 74
0
 49
-3.0
 74
0
 49
0.0
 74
0
 49
-3.0
 74
0
  0
LTYPE
  5
37
100
AcDbSymbolTableRecord
100
AcDbLinetypeTableRecord
  2
HIDDEN2
 70
0
  3
Hidden (.5x) _ _ _ _ _ _ _ _ _ _ _ _ _ _ _ _ _ 
 72
65
 73
2
 40
4.7624999999999993
 49
3.1749999999999998
 74
0
 49
-1.5874999999999999
 74
0
  0
LTYPE
  5
38
100
AcDbSymbolTableRecord
100
AcDbLinetypeTableRecord
  2
BORDERX2
 70
0
  3
Border (2x) ____  ____  .  ____  ____  .  ___
 72
65
 73
6
 40
88.8999999999999915
 49
25.3999999999999986
 74
0
 49
-12.6999999999999993
 74
0
 49
25.3999999999999986
 74
0
 49
-12.6999999999999993
 74
0
 49
0.0
 74
0
 49
-12.6999999999999993
 74
0
  0
LTYPE
  5
39
100
AcDbSymbolTableRecord
100
AcDbLinetypeTableRecord
  2
ACAD_ISO05W100
 70
0
  3
ISO long-dash double-dot ____ .. ____ .. ____ . 
 72
65
 73
6
 40
33.0
 49
24.0
 74
0
 49
-3.0
 74
0
 49
0.0
 74
0
 49
-3.0
 74
0
 49
0.0
 74
0
 49
-3.0
 74
0
  0
LTYPE
  5
3A
100
AcDbSymbolTableRecord
100
AcDbLinetypeTableRecord
  2
DASHDOTX2
 70
0
  3
Dash dot (2x) ____  .  ____  .  ____  .  ___
 72
65
 73
4
 40
50.7999999999999972
 49
25.3999999999999986
 74
0
 49
-12.6999999999999993
 74
0
 49
0.0
 74
0
 49
-12.6999999999999993
 74
0
  0
LTYPE
  5
3B
100
AcDbSymbolTableRecord
100
AcDbLinetypeTableRecord
  2
HIDDENX2
 70
0
  3
Hidden (2x) ____ ____ ____ ____ ____ ____ ____ 
 72
65
 73
2
 40
19.0499999999999972
 49
12.6999999999999993
 74
0
 49
-6.3499999999999996
 74
0
  0
LTYPE
  5
3C
100
AcDbSymbolTableRecord
100
AcDbLinetypeTableRecord
  2
CENTERX2
 70
0
  3
Center (2x) ________  __  ________  __  _____
 72
65
 73
4
 40
101.6000000000000085
 49
63.5
 74
0
 49
-12.6999999999999993
 74
0
 49
12.6999999999999993
 74
0
 49
-12.6999999999999993
 74
0
  0
LTYPE
  5
3D
100
AcDbSymbolTableRecord
100
AcDbLinetypeTableRecord
  2
BORDER2
 70
0
  3
Border (.5x) __.__.__.__.__.__.__.__.__.__.__.
 72
65
 73
6
 40
22.2249999999999979
 49
6.3499999999999996
 74
0
 49
-3.1749999999999998
 74
0
 49
6.3499999999999996
 74
0
 49
-3.1749999999999998
 74
0
 49
0.0
 74
0
 49
-3.1749999999999998
 74
0
  0
LTYPE
  5
3E
100
AcDbSymbolTableRecord
100
AcDbLinetypeTableRecord
  2
DASHDOT2
 70
0
  3
Dash dot (.5x) _._._._._._._._._._._._._._._.
 72
65
 73
4
 40
12.6999999999999993
 49
6.3499999999999996
 74
0
 49
-3.1749999999999998
 74
0
 49
0.0
 74
0
 49
-3.1749999999999998
 74
0
  0
LTYPE
  5
3F
100
AcDbSymbolTableRecord
100
AcDbLinetypeTableRecord
  2
ACAD_ISO12W100
 70
0
  3
ISO dash double-dot __ . . __ . . __ . . __ . . 
 72
65
 73
6
 40
21.0
 49
12.0
 74
0
 49
-3.0
 74
0
 49
0.0
 74
0
 49
-3.0
 74
0
 49
0.0
 74
0
 49
-3.0
 74
0
  0
LTYPE
  5
40
100
AcDbSymbolTableRecord
100
AcDbLinetypeTableRecord
  2
ACAD_ISO07W100
 70
0
  3
ISO dot . . . . . . . . . . . . . . . . . . . . 
 72
65
 73
2
 40
3.0
 49
0.0
 74
0
 49
-3.0
 74
0
  0
LTYPE
  5
41
100
AcDbSymbolTableRecord
100
AcDbLinetypeTableRecord
  2
HIDDEN
 70
0
  3
Hidden __ __ __ __ __ __ __ __ __ __ __ __ __ __
 72
65
 73
2
 40
9.5249999999999986
 49
6.3499999999999996
 74
0
 49
-3.1749999999999998
 74
0
  0
LTYPE
  5
42
100
AcDbSymbolTableRecord
100
AcDbLinetypeTableRecord
  2
ACAD_ISO06W100
 70
0
  3
ISO long-dash triple-dot ____ ... ____ ... ____
 72
65
 73
8
 40
36.0
 49
24.0
 74
0
 49
-3.0
 74
0
 49
0.0
 74
0
 49
-3.0
 74
0
 49
0.0
 74
0
 49
-3.0
 74
0
 49
0.0
 74
0
 49
-3.0
 74
0
  0
LTYPE
  5
43
100
AcDbSymbolTableRecord
100
AcDbLinetypeTableRecord
  2
CENTER
 70
0
  3
Center ____ _ ____ _ ____ _ ____ _ ____ _ ____
 72
65
 73
4
 40
50.8000000000000043
 49
31.75
 74
0
 49
-6.3499999999999996
 74
0
 49
6.3499999999999996
 74
0
 49
-6.3499999999999996
 74
0
  0
LTYPE
  5
44
100
AcDbSymbolTableRecord
100
AcDbLinetypeTableRecord
  2
DOTX2
 70
0
  3
Dot (2x) .  .  .  .  .  .  .  .  .  .  .  .  .  .
 72
65
 73
2
 40
12.6999999999999993
 49
0.0
 74
0
 49
-12.6999999999999993
 74
0
  0
LTYPE
  5
45
100
AcDbSymbolTableRecord
100
AcDbLinetypeTableRecord
  2
PHANTOM
 70
0
  3
Phantom ______  __  __  ______  __  __  ______ 
 72
65
 73
6
 40
63.5000000000000071
 49
31.75
 74
0
 49
-6.3499999999999996
 74
0
 49
6.3499999999999996
 74
0
 49
-6.3499999999999996
 74
0
 49
6.3499999999999996
 74
0
 49
-6.3499999999999996
 74
0
  0
LTYPE
  5
46
100
AcDbSymbolTableRecord
100
AcDbLinetypeTableRecord
  2
ACAD_ISO08W100
 70
0
  3
ISO long-dash short-dash ____ __ ____ __ ____ _
 72
65
 73
4
 40
36.0
 49
24.0
 74
0
 49
-3.0
 74
0
 49
6.0
 74
0
 49
-3.0
 74
0
  0
LTYPE
  5
47
100
AcDbSymbolTableRecord
100
AcDbLinetypeTableRecord
  2
DASHEDX2
 70
0
  3
Dashed (2x) ____  ____  ____  ____  ____  ___
 72
65
 73
2
 40
38.0999999999999943
 49
25.3999999999999986
 74
0
 49
-12.6999999999999993
 74
0
  0
LTYPE
  5
48
100
AcDbSymbolTableRecord
100
AcDbLinetypeTableRecord
  2
ACAD_ISO02W100
 70
0
  3
ISO dash __ __ __ __ __ __ __ __ __ __ __ __ __
 72
65
 73
2
 40
15.0
 49
12.0
 74
0
 49
-3.0
 74
0
  0
LTYPE
  5
49
100
AcDbSymbolTableRecord
100
AcDbLinetypeTableRecord
  2
PHANTOM2
 70
0
  3
Phantom (.5x) ___ _ _ ___ _ _ ___ _ _ ___ _ _
 72
65
 73
6
 40
31.7500000000000036
 49
15.875
 74
0
 49
-3.1749999999999998
 74
0
 49
3.1749999999999998
 74
0
 49
-3.1749999999999998
 74
0
 49
3.1749999999999998
 74
0
 49
-3.1749999999999998
 74
0
  0
LTYPE
  5
4A
100
AcDbSymbolTableRecord
100
AcDbLinetypeTableRecord
  2
DASHED2
 70
0
  3
Dashed (.5x) _ _ _ _ _ _ _ _ _ _ _ _ _ _ _ _ _ 
 72
65
 73
2
 40
9.5249999999999986
 49
6.3499999999999996
 74
0
 49
-3.1749999999999998
 74
0
  0
LTYPE
  5
4B
100
AcDbSymbolTableRecord
100
AcDbLinetypeTableRecord
  2
ACAD_ISO09W100
 70
0
  3
ISO long-dash double-short-dash ____ __ __ ____
 72
65
 73
6
 40
45.0
 49
24.0
 74
0
 49
-3.0
 74
0
 49
6.0
 74
0
 49
-3.0
 74
0
 49
6.0
 74
0
 49
-3.0
 74
0
  0
LTYPE
  5
4C
100
AcDbSymbolTableRecord
100
AcDbLinetypeTableRecord
  2
ACAD_ISO13W100
 70
0
  3
ISO double-dash double-dot __ __ . . __ __ . . _
 72
65
 73
8
 40
36.0
 49
12.0
 74
0
 49
-3.0
 74
0
 49
12.0
 74
0
 49
-3.0
 74
0
 49
0.0
 74
0
 49
-3.0
 74
0
 49
0.0
 74
0
 49
-3.0
 74
0
  0
LTYPE
  5
4D
100
AcDbSymbolTableRecord
100
AcDbLinetypeTableRecord
  2
DOT2
 70
0
  3
Dot (.5x) ........................................
 72
65
 73
2
 40
3.1749999999999998
 49
0.0
 74
0
 49
-3.1749999999999998
 74
0
  0
LTYPE
  5
4E
100
AcDbSymbolTableRecord
100
AcDbLinetypeTableRecord
  2
DASHED
 70
0
  3
Dashed __ __ __ __ __ __ __ __ __ __ __ __ __ _
 72
65
 73
2
 40
19.0499999999999972
 49
12.6999999999999993
 74
0
 49
-6.3499999999999996
 74
0
  0
LTYPE
  5
4F
100
AcDbSymbolTableRecord
100
AcDbLinetypeTableRecord
  2
ACAD_ISO14W100
 70
0
  3
ISO dash triple-dot __ . . . __ . . . __ . . . _
 72
65
 73
8
 40
24.0
 49
12.0
 74
0
 49
-3.0
 74
0
 49
0.0
 74
0
 49
-3.0
 74
0
 49
0.0
 74
0
 49
-3.0
 74
0
 49
0.0
 74
0
 49
-3.0
 74
0
  0
LTYPE
  5
15
100
AcDbSymbolTableRecord
100
AcDbLinetypeTableRecord
  2
BYLAYER
 70
0
  3

 72
65
 73
0
 40
0.0
  0
LTYPE
  5
50
100
AcDbSymbolTableRecord
100
AcDbLinetypeTableRecord
  2
PHANTOMX2
 70
0
  3
Phantom (2x) ____________    ____    ____   _
 72
65
 73
6
 40
127.0000000000000142
 49
63.5
 74
0
 49
-12.6999999999999993
 74
0
 49
12.6999999999999993
 74
0
 49
-12.6999999999999993
 74
0
 49
12.6999999999999993
 74
0
 49
-12.6999999999999993
 74
0
  0
LTYPE
  5
14
100
AcDbSymbolTableRecord
100
AcDbLinetypeTableRecord
  2
BYBLOCK
 70
0
  3

 72
65
 73
0
 40
0.0
  0
LTYPE
  5
51
100
AcDbSymbolTableRecord
100
AcDbLinetypeTableRecord
  2
DIVIDEX2
 70
0
  3
Divide (2x) ________  .  .  ________  .  .  _
 72
65
 73
6
 40
63.5
 49
25.3999999999999986
 74
0
 49
-12.6999999999999993
 74
0
 49
0.0
 74
0
 49
-12.6999999999999993
 74
0
 49
0.0
 74
0
 49
-12.6999999999999993
 74
0
  0
LTYPE
  5
52
100
AcDbSymbolTableRecord
100
AcDbLinetypeTableRecord
  2
BORDER
 70
0
  3
Border __ __ . __ __ . __ __ . __ __ . __ __ .
 72
65
 73
6
 40
44.4499999999999957
 49
12.6999999999999993
 74
0
 49
-6.3499999999999996
 74
0
 49
12.6999999999999993
 74
0
 49
-6.3499999999999996
 74
0
 49
0.0
 74
0
 49
-6.3499999999999996
 74
0
  0
LTYPE
  5
53
100
AcDbSymbolTableRecord
100
AcDbLinetypeTableRecord
  2
DIVIDE2
 70
0
  3
Divide (.5x) __..__..__..__..__..__..__..__.._
 72
65
 73
6
 40
15.875
 49
6.3499999999999996
 74
0
 49
-3.1749999999999998
 74
0
 49
0.0
 74
0
 49
-3.1749999999999998
 74
0
 49
0.0
 74
0
 49
-3.1749999999999998
 74
0
  0
LTYPE
  5
54
100
AcDbSymbolTableRecord
100
AcDbLinetypeTableRecord
  2
DOT
 70
0
  3
Dot . . . . . . . . . . . . . . . . . . . . . . . .
 72
65
 73
2
 40
6.3499999999999996
 49
0.0
 74
0
 49
-6.3499999999999996
 74
0
  0
LTYPE
  5
55
100
AcDbSymbolTableRecord
100
AcDbLinetypeTableRecord
  2
DASHDOT
 70
0
  3
Dash dot __ . __ . __ . __ . __ . __ . __ . __
 72
65
 73
4
 40
25.3999999999999986
 49
12.6999999999999993
 74
0
 49
-6.3499999999999996
 74
0
 49
0.0
 74
0
 49
-6.3499999999999996
 74
0
  0
LTYPE
  5
56
100
AcDbSymbolTableRecord
100
AcDbLinetypeTableRecord
  2
ACAD_ISO03W100
 70
0
  3
ISO dash space __    __    __    __    __    __
 72
65
 73
2
 40
30.0
 49
12.0
 74
0
 49
-18.0
 74
0
  0
ENDTAB
  0
TABLE
  2
LAYER
  5
2
100
AcDbSymbolTable
 70
2
  0
LAYER
  5
57
100
AcDbSymbolTableRecord
100
AcDbLayerTableRecord
  2
txt
 70
0
 62
5
420
255
  6
Continuous
370
0
390
F
  0
LAYER
  5
10
100
AcDbSymbolTableRecord
100
AcDbLayerTableRecord
  2
0
 70
0
 62
1
420
16711680
  6
Continuous
370
0
390
F
  0
ENDTAB
  0
TABLE
  2
STYLE
  5
3
100
AcDbSymbolTable
 70
1
  0
STYLE
  5
58
100
AcDbSymbolTableRecord
100
AcDbTextStyleTableRecord
  2
Standard
 70
0
 40
0.0
 41
1.0
 50
0.0
 71
0
 42
2.5
  3

  4

1001
ACAD
1000
txt
1071
0
  0
ENDTAB
  0
TABLE
  2
VIEW
  5
6
100
AcDbSymbolTable
 70
0
  0
ENDTAB
  0
TABLE
  2
UCS
  5
7
100
AcDbSymbolTable
 70
0
  0
ENDTAB
  0
TABLE
  2
APPID
  5
9
100
AcDbSymbolTable
 70
1
  0
APPID
  5
12
100
AcDbSymbolTableRecord
100
AcDbRegAppTableRecord
  2
ACAD
 70
0
  0
APPID
  5
59
100
AcDbSymbolTableRecord
100
AcDbRegAppTableRecord
  2
QCAD
 70
0
  0
ENDTAB
  0
TABLE
  2
DIMSTYLE
  5
A
100
AcDbSymbolTable
 70
1
100
AcDbDimStyleTable
 71
0
  0
DIMSTYLE
105
27
100
AcDbSymbolTableRecord
100
AcDbDimStyleTableRecord
  2
Standard
 41
0.125
 42
0.03125
 43
3.75
 44
0.0625
 70
0
 73
0
 74
0
 77
1
 78
8
140
0.125
141
2.5
143
0.03937007874016
147
0.03125
171
3
172
1
271
2
272
2
274
3
278
44
283
0
284
8
340
58
  0
ENDTAB
  0
TABLE
  2
BLOCK_RECORD
  5
1
100
AcDbSymbolTable
 70
1
  0
BLOCK_RECORD
  5
1F
100
AcDbSymbolTableRecord
100
AcDbBlockTableRecord
  2
*Model_Space
340
22
  0
BLOCK_RECORD
  5
1B
100
AcDbSymbolTableRecord
100
AcDbBlockTableRecord
  2
*Paper_Space
340
1E
  0
BLOCK_RECORD
  5
23
100
AcDbSymbolTableRecord
100
AcDbBlockTableRecord
  2
*Paper_Space0
340
26
  0
ENDTAB
  0
ENDSEC
  0
SECTION
  2
BLOCKS
  0
BLOCK
  5
20
100
AcDbEntity
  8
0
100
AcDbBlockBegin
  2
*Model_Space
 70
0
 10
0.0
 20
0.0
 30
0.0
  3
*Model_Space
  1

  0
ENDBLK
  5
21
100
AcDbEntity
  8
0
100
AcDbBlockEnd
  0
BLOCK
  5
1C
100
AcDbEntity
 67
1
  8
0
100
AcDbBlockBegin
  2
*Paper_Space
 70
0
 10
0.0
 20
0.0
 30
0.0
  3
*Paper_Space
  1

  0
ENDBLK
  5
1D
100
AcDbEntity
 67
1
  8
0
100
AcDbBlockEnd
  0
BLOCK
  5
24
100
AcDbEntity
  8
0
100
AcDbBlockBegin
  2
*Paper_Space0
 70
0
 10
0.0
 20
0.0
 30
0.0
  3
*Paper_Space0
  1

  0
ENDBLK
  5
25
100
AcDbEntity
  8
0
100
AcDbBlockEnd
  0
ENDSEC
  0
SECTION
  2
ENTITIES
  0
LINE
  5
5A
100
AcDbEntity
100
AcDbLine
  8
0
 62
256
370
-1
 48
1.0
  6
BYLAYER
 10
0.05
 20
0.0
 30
0.0
 11
1.05
 21
0.0
 31
0.0
  0
LINE
  5
5B
100
AcDbEntity
100
AcDbLine
  8
0
 62
256
370
-1
 48
1.0
  6
BYLAYER
 10
1.1000000000000001
 20
0.05
 30
0.0
 11
1.1000000000000001
 21
0.95
 31
0.0
  0
LINE
  5
5C
100
AcDbEntity
100
AcDbLine
  8
0
 62
256
370
-1
 48
1.0
  6
BYLAYER
 10
1.05
 20
1.0
 30
0.0
 11
0.05
 21
1.0
 31
0.0
  0
LINE
  5
5D
100
AcDbEntity
100
AcDbLine
  8
0
 62
256
370
-1
 48
1.0
  6
BYLAYER
 10
0.0
 20
0.9499999999999998
 30
0.0
 11
0.0
 21
0.0500000000000003
 31
0.0
  0
ARC
  5
5E
100
AcDbEntity
  8
0
 62
256
370
-1
 48
1.0
  6
BYLAYER
100
AcDbCircle
 10
0.05
 20
0.9499999999999998
 30
0.0
 40
0.05
100
AcDbArc
 50
89.9999999999999432
 51
180.0
  0
ARC
  5
5F
100
AcDbEntity
  8
0
 62
256
370
-1
 48
1.0
  6
BYLAYER
100
AcDbCircle
 10
1.05
 20
0.95
 30
0.0
 40
0.05
100
AcDbArc
 50
0.0
 51
90.0
  0
ARC
  5
60
100
AcDbEntity
  8
0
 62
256
370
-1
 48
1.0
  6
BYLAYER
100
AcDbCircle
 10
0.05
 20
0.05
 30
0.0
 40
0.05
100
AcDbArc
 50
180.0
 51
270.0
  0
ARC
  5
61
100
AcDbEntity
  8
0
 62
256
370
-1
 48
1.0
  6
BYLAYER
100
AcDbCircle
 10
1.05
 20
0.05
 30
0.0
 40
0.05
100
AcDbArc
 50
270.0
 51
0.0
  0
CIRCLE
  5
62
100
AcDbEntity
100
AcDbCircle
  8
0
 62
256
370
-1
 48
1.0
  6
BYLAYER
 10
0.3
 20
0.1
 30
0.0
 40
0.0375
  0
CIRCLE
  5
63
100
AcDbEntity
100
AcDbCircle
  8
0
 62
256
370
-1
 48
1.0
  6
BYLAYER
 10
0.3
 20
0.9
 30
0.0
 40
0.0375
  0
LINE
  5
64
100
AcDbEntity
100
AcDbLine
  8
txt
 62
256
370
-1
 48
1.0
  6
BYLAYER
 10
0.5425825426498664
 20
0.8500000010882869
 30
0.0
 11
0.5425825426498664
 21
0.7500000010882869
 31
0.0
  0
LINE
  5
65
100
AcDbEntity
100
AcDbLine
  8
txt
 62
256
370
-1
 48
1.0
  6
BYLAYER
 10
0.5425825426498664
 20
0.7500000010882869
 30
0.0
 11
0.5577510812683695
 21
0.7500000010882869
 31
0.0
  0
LINE
  5
66
100
AcDbEntity
100
AcDbLine
  8
txt
 62
256
370
-1
 48
1.0
  6
BYLAYER
 10
0.5577510812683695
 20
0.7500000010882869
 30
0.0
 11
0.5577510812683695
 21
0.789466291221498
 31
0.0
  0
LINE
  5
67
100
AcDbEntity
100
AcDbLine
  8
txt
 62
256
370
-1
 48
1.0
  6
BYLAYER
 10
0.5577510812683695
 20
0.789466291221498
 30
0.0
 11
0.5805038871869792
 21
0.789466291221498
 31
0.0
  0
SPLINE
  5
68
  8
txt
 62
256
370
-1
 48
1.0
  6
BYLAYER
100
AcDbEntity
100
AcDbSpline
 70
8
 71
3
 72
8
 73
4
 74
0
 40
0.0
 40
0.0
 40
0.0
 40
0.0
 40
1.0
 40
1.0
 40
1.0
 40
1.0
 10
0.5805038871869792
 20
0.789466291221498
 30
0.0
 10
0.6000263599850284
 20
0.789466291221498
 30
0.0
 10
0.6125263613244585
 20
0.8022471898119568
 30
0.0
 10
0.6125263613244585
 20
0.8196629211724202
 30
0.0
  0
SPLINE
  5
69
  8
txt
 62
256
370
-1
 48
1.0
  6
BYLAYER
100
AcDbEntity
100
AcDbSpline
 70
8
 71
3
 72
8
 73
4
 74
0
 40
0.0
 40
0.0
 40
0.0
 40
0.0
 40
1.0
 40
1.0
 40
1.0
 40
1.0
 10
0.6125263613244585
 20
0.8196629211724202
 30
0.0
 10
0.6125263613244585
 20
0.8370786471751632
 30
0.0
 10
0.6000263599850284
 20
0.8500000010882869
 30
0.0
 10
0.5805038871869792
 20
0.8500000010882869
 30
0.0
  0
LINE
  5
6A
100
AcDbEntity
100
AcDbLine
  8
txt
 62
256
370
-1
 48
1.0
  6
BYLAYER
 10
0.5805038871869792
 20
0.8500000010882869
 30
0.0
 11
0.5425825426498664
 21
0.8500000010882869
 31
0.0
  0
SPLINE
  5
6B
  8
txt
 62
256
370
-1
 48
1.0
  6
BYLAYER
100
AcDbEntity
100
AcDbSpline
 70
8
 71
3
 72
8
 73
4
 74
0
 40
0.0
 40
0.0
 40
0.0
 40
0.0
 40
1.0
 40
1.0
 40
1.0
 40
1.0
 10
0.579661192755033
 20
0.8363764000293012
 30
0.0
 10
0.5903353472290458
 20
0.8363764000293012
 30
0.0
 10
0.5973578186876649
 20
0.830337075646433
 30
0.0
 10
0.5973578186876649
 20
0.8196629211724202
 30
0.0
  0
SPLINE
  5
6C
  8
txt
 62
256
370
-1
 48
1.0
  6
BYLAYER
100
AcDbEntity
100
AcDbSpline
 70
8
 71
3
 72
8
 73
4
 74
0
 40
0.0
 40
0.0
 40
0.0
 40
0.0
 40
1.0
 40
1.0
 40
1.0
 40
1.0
 10
0.5973578186876649
 20
0.8196629211724202
 30
0.0
 10
0.5973578186876649
 20
0.8091292139844917
 30
0.0
 10
0.5903353472290458
 20
0.8030898842439028
 30
0.0
 10
0.579661192755033
 20
0.8030898842439028
 30
0.0
  0
LINE
  5
6D
100
AcDbEntity
100
AcDbLine
  8
txt
 62
256
370
-1
 48
1.0
  6
BYLAYER
 10
0.579661192755033
 20
0.8030898842439028
 30
0.0
 11
0.5577510812683695
 21
0.8030898842439028
 31
0.0
  0
LINE
  5
6E
100
AcDbEntity
100
AcDbLine
  8
txt
 62
256
370
-1
 48
1.0
  6
BYLAYER
 10
0.5577510812683695
 20
0.8030898842439028
 30
0.0
 11
0.5577510812683695
 21
0.8363764000293012
 31
0.0
  0
LINE
  5
6F
100
AcDbEntity
100
AcDbLine
  8
txt
 62
256
370
-1
 48
1.0
  6
BYLAYER
 10
0.5577510812683695
 20
0.8363764000293012
 30
0.0
 11
0.579661192755033
 21
0.8363764000293012
 31
0.0
  0
SPLINE
  5
70
  8
txt
 62
256
370
-1
 48
1.0
  6
BYLAYER
100
AcDbEntity
100
AcDbSpline
 70
8
 71
3
 72
8
 73
4
 74
0
 40
0.0
 40
0.0
 40
0.0
 40
0.0
 40
1.0
 40
1.0
 40
1.0
 40
1.0
 10
0.6627984745926712
 20
0.850842695520233
 30
0.0
 10
0.6518434201887695
 20
0.850842695520233
 30
0.0
 10
0.6434164544384267
 20
0.8471910125048393
 30
0.0
 10
0.6369557815001552
 20
0.8407303301905569
 30
0.0
  0
SPLINE
  5
71
  8
txt
 62
256
370
-1
 48
1.0
  6
BYLAYER
100
AcDbEntity
100
AcDbSpline
 70
8
 71
3
 72
8
 73
4
 74
0
 40
0.0
 40
0.0
 40
0.0
 40
0.0
 40
1.0
 40
1.0
 40
1.0
 40
1.0
 10
0.6369557815001552
 20
0.8407303301905569
 30
0.0
 10
0.6271243207883735
 20
0.8308988755062108
 30
0.0
 10
0.6268434221979148
 20
0.8209269628203394
 30
0.0
 10
0.6268434221979148
 20
0.8000000010882868
 30
0.0
  0
SPLINE
  5
72
  8
txt
 62
256
370
-1
 48
1.0
  6
BYLAYER
100
AcDbEntity
100
AcDbSpline
 70
8
 71
3
 72
8
 73
4
 74
0
 40
0.0
 40
0.0
 40
0.0
 40
0.0
 40
1.0
 40
1.0
 40
1.0
 40
1.0
 10
0.6268434221979148
 20
0.8000000010882868
 30
0.0
 10
0.6268434221979148
 20
0.7790730339985139
 30
0.0
 10
0.6271243207883735
 20
0.7691011239915028
 30
0.0
 10
0.6369557815001552
 20
0.759269663279721
 30
0.0
  0
SPLINE
  5
73
  8
txt
 62
256
370
-1
 48
1.0
  6
BYLAYER
100
AcDbEntity
100
AcDbSpline
 70
8
 71
3
 72
8
 73
4
 74
0
 40
0.0
 40
0.0
 40
0.0
 40
0.0
 40
1.0
 40
1.0
 40
1.0
 40
1.0
 10
0.6369557815001552
 20
0.759269663279721
 30
0.0
 10
0.6434164544384267
 20
0.7528089896717345
 30
0.0
 10
0.6518434201887695
 20
0.7491573044797668
 30
0.0
 10
0.6627984745926712
 20
0.7491573044797668
 30
0.0
  0
SPLINE
  5
74
  8
txt
 62
256
370
-1
 48
1.0
  6
BYLAYER
100
AcDbEntity
100
AcDbSpline
 70
8
 71
3
 72
8
 73
4
 74
0
 40
0.0
 40
0.0
 40
0.0
 40
0.0
 40
1.0
 40
1.0
 40
1.0
 40
1.0
 10
0.6627984745926712
 20
0.7491573044797668
 30
0.0
 10
0.6737535343542933
 20
0.7491573044797668
 30
0.0
 10
0.6821805001046363
 20
0.7528089896717345
 30
0.0
 10
0.6886411717034775
 20
0.759269663279721
 30
0.0
  0
SPLINE
  5
75
  8
txt
 62
256
370
-1
 48
1.0
  6
BYLAYER
100
AcDbEntity
100
AcDbSpline
 70
8
 71
3
 72
8
 73
4
 74
0
 40
0.0
 40
0.0
 40
0.0
 40
0.0
 40
1.0
 40
1.0
 40
1.0
 40
1.0
 10
0.6886411717034775
 20
0.759269663279721
 30
0.0
 10
0.6984726317455442
 20
0.7691011239915028
 30
0.0
 10
0.6987535316754331
 20
0.7790730339985139
 30
0.0
 10
0.6987535316754331
 20
0.8000000010882868
 30
0.0
  0
SPLINE
  5
76
  8
txt
 62
256
370
-1
 48
1.0
  6
BYLAYER
100
AcDbEntity
100
AcDbSpline
 70
8
 71
3
 72
8
 73
4
 74
0
 40
0.0
 40
0.0
 40
0.0
 40
0.0
 40
1.0
 40
1.0
 40
1.0
 40
1.0
 10
0.6987535316754331
 20
0.8000000010882868
 30
0.0
 10
0.6987535316754331
 20
0.8209269628203394
 30
0.0
 10
0.6984726317455442
 20
0.8308988755062108
 30
0.0
 10
0.6886411717034775
 20
0.8407303301905569
 30
0.0
  0
SPLINE
  5
77
  8
txt
 62
256
370
-1
 48
1.0
  6
BYLAYER
100
AcDbEntity
100
AcDbSpline
 70
8
 71
3
 72
8
 73
4
 74
0
 40
0.0
 40
0.0
 40
0.0
 40
0.0
 40
1.0
 40
1.0
 40
1.0
 40
1.0
 10
0.6886411717034775
 20
0.8407303301905569
 30
0.0
 10
0.6821805001046363
 20
0.8471910125048393
 30
0.0
 10
0.6737535343542933
 20
0.850842695520233
 30
0.0
 10
0.6627984745926712
 20
0.850842695520233
 30
0.0
  0
SPLINE
  5
78
  8
txt
 62
256
370
-1
 48
1.0
  6
BYLAYER
100
AcDbEntity
100
AcDbSpline
 70
8
 71
3
 72
8
 73
4
 74
0
 40
0.0
 40
0.0
 40
0.0
 40
0.0
 40
1.0
 40
1.0
 40
1.0
 40
1.0
 10
0.6627984745926712
 20
0.8372190998189679
 30
0.0
 10
0.66883780433326
 20
0.8372190998189679
 30
0.0
 10
0.6738939816403775
 20
0.8351123583813822
 30
0.0
 10
0.677686117299576
 20
0.8311797700783791
 30
0.0
  0
SPLINE
  5
79
  8
txt
 62
256
370
-1
 48
1.0
  6
BYLAYER
100
AcDbEntity
100
AcDbSpline
 70
8
 71
3
 72
8
 73
4
 74
0
 40
0.0
 40
0.0
 40
0.0
 40
0.0
 40
1.0
 40
1.0
 40
1.0
 40
1.0
 10
0.677686117299576
 20
0.8311797700783791
 30
0.0
 10
0.6827422946066934
 20
0.8259831454851774
 30
0.0
 10
0.68358499439636
 20
0.8198033684585044
 30
0.0
 10
0.68358499439636
 20
0.8000000010882868
 30
0.0
  0
SPLINE
  5
7A
  8
txt
 62
256
370
-1
 48
1.0
  6
BYLAYER
100
AcDbEntity
100
AcDbSpline
 70
8
 71
3
 72
8
 73
4
 74
0
 40
0.0
 40
0.0
 40
0.0
 40
0.0
 40
1.0
 40
1.0
 40
1.0
 40
1.0
 10
0.68358499439636
 20
0.8000000010882868
 30
0.0
 10
0.68358499439636
 20
0.7801966283603489
 30
0.0
 10
0.6827422946066934
 20
0.7741573039774805
 30
0.0
 10
0.677686117299576
 20
0.7689606740265583
 30
0.0
  0
SPLINE
  5
7B
  8
txt
 62
256
370
-1
 48
1.0
  6
BYLAYER
100
AcDbEntity
100
AcDbSpline
 70
8
 71
3
 72
8
 73
4
 74
0
 40
0.0
 40
0.0
 40
0.0
 40
0.0
 40
1.0
 40
1.0
 40
1.0
 40
1.0
 10
0.677686117299576
 20
0.7689606740265583
 30
0.0
 10
0.6738939816403775
 20
0.7650280897418457
 30
0.0
 10
0.66883780433326
 20
0.7627808996787456
 30
0.0
 10
0.6627984745926712
 20
0.7627808996787456
 30
0.0
  0
SPLINE
  5
7C
  8
txt
 62
256
370
-1
 48
1.0
  6
BYLAYER
100
AcDbEntity
100
AcDbSpline
 70
8
 71
3
 72
8
 73
4
 74
0
 40
0.0
 40
0.0
 40
0.0
 40
0.0
 40
1.0
 40
1.0
 40
1.0
 40
1.0
 10
0.6627984745926712
 20
0.7627808996787456
 30
0.0
 10
0.6567591502098029
 20
0.7627808996787456
 30
0.0
 10
0.6517029702238251
 20
0.7650280897418457
 30
0.0
 10
0.647910837243487
 20
0.7689606740265583
 30
0.0
  0
SPLINE
  5
7D
  8
txt
 62
256
370
-1
 48
1.0
  6
BYLAYER
100
AcDbEntity
100
AcDbSpline
 70
8
 71
3
 72
8
 73
4
 74
0
 40
0.0
 40
0.0
 40
0.0
 40
0.0
 40
1.0
 40
1.0
 40
1.0
 40
1.0
 10
0.647910837243487
 20
0.7689606740265583
 30
0.0
 10
0.6429951072224537
 20
0.7742977539424249
 30
0.0
 10
0.6420119601467029
 20
0.7801966283603489
 30
0.0
 10
0.6420119601467029
 20
0.8000000010882868
 30
0.0
  0
SPLINE
  5
7E
  8
txt
 62
256
370
-1
 48
1.0
  6
BYLAYER
100
AcDbEntity
100
AcDbSpline
 70
8
 71
3
 72
8
 73
4
 74
0
 40
0.0
 40
0.0
 40
0.0
 40
0.0
 40
1.0
 40
1.0
 40
1.0
 40
1.0
 10
0.6420119601467029
 20
0.8000000010882868
 30
0.0
 10
0.6420119601467029
 20
0.8198033684585044
 30
0.0
 10
0.6429951072224537
 20
0.8258426928413727
 30
0.0
 10
0.647910837243487
 20
0.8311797700783791
 30
0.0
  0
SPLINE
  5
7F
  8
txt
 62
256
370
-1
 48
1.0
  6
BYLAYER
100
AcDbEntity
100
AcDbSpline
 70
8
 71
3
 72
8
 73
4
 74
0
 40
0.0
 40
0.0
 40
0.0
 40
0.0
 40
1.0
 40
1.0
 40
1.0
 40
1.0
 10
0.647910837243487
 20
0.8311797700783791
 30
0.0
 10
0.6517029702238251
 20
0.8351123583813822
 30
0.0
 10
0.6567591502098029
 20
0.8372190998189679
 30
0.0
 10
0.6627984745926712
 20
0.8372190998189679
 30
0.0
  0
LINE
  5
80
100
AcDbEntity
100
AcDbLine
  8
txt
 62
256
370
-1
 48
1.0
  6
BYLAYER
 10
0.8278221658971014
 20
0.8500000010882869
 30
0.0
 11
0.8118109288283618
 21
0.8500000010882869
 31
0.0
  0
LINE
  5
81
100
AcDbEntity
100
AcDbLine
  8
txt
 62
256
370
-1
 48
1.0
  6
BYLAYER
 10
0.8118109288283618
 20
0.8500000010882869
 30
0.0
 11
0.7943952028256189
 21
0.7785112368175964
 31
0.0
  0
LINE
  5
82
100
AcDbEntity
100
AcDbLine
  8
txt
 62
256
370
-1
 48
1.0
  6
BYLAYER
 10
0.7943952028256189
 20
0.7785112368175964
 30
0.0
 11
0.7743109355255124
 21
0.8500000010882869
 31
0.0
  0
LINE
  5
83
100
AcDbEntity
100
AcDbLine
  8
txt
 62
256
370
-1
 48
1.0
  6
BYLAYER
 10
0.7743109355255124
 20
0.8500000010882869
 30
0.0
 11
0.7620918341159713
 21
0.8500000010882869
 31
0.0
  0
LINE
  5
84
100
AcDbEntity
100
AcDbLine
  8
txt
 62
256
370
-1
 48
1.0
  6
BYLAYER
 10
0.7620918341159713
 20
0.8500000010882869
 30
0.0
 11
0.7420075641370045
 21
0.7785112368175964
 31
0.0
  0
LINE
  5
85
100
AcDbEntity
100
AcDbLine
  8
txt
 62
256
370
-1
 48
1.0
  6
BYLAYER
 10
0.7420075641370045
 20
0.7785112368175964
 30
0.0
 11
0.7245918354554014
 21
0.8500000010882869
 31
0.0
  0
LINE
  5
86
100
AcDbEntity
100
AcDbLine
  8
txt
 62
256
370
-1
 48
1.0
  6
BYLAYER
 10
0.7245918354554014
 20
0.8500000010882869
 30
0.0
 11
0.7085806005632357
 21
0.8500000010882869
 31
0.0
  0
LINE
  5
87
100
AcDbEntity
100
AcDbLine
  8
txt
 62
256
370
-1
 48
1.0
  6
BYLAYER
 10
0.7085806005632357
 20
0.8500000010882869
 30
0.0
 11
0.7347041954273569
 21
0.7500000010882869
 31
0.0
  0
LINE
  5
88
100
AcDbEntity
100
AcDbLine
  8
txt
 62
256
370
-1
 48
1.0
  6
BYLAYER
 10
0.7347041954273569
 20
0.7500000010882869
 30
0.0
 11
0.7479064412337887
 21
0.7500000010882869
 31
0.0
  0
LINE
  5
89
100
AcDbEntity
100
AcDbLine
  8
txt
 62
256
370
-1
 48
1.0
  6
BYLAYER
 10
0.7479064412337887
 20
0.7500000010882869
 30
0.0
 11
0.7681311584988395
 21
0.8200842683883933
 31
0.0
  0
LINE
  5
8A
100
AcDbEntity
100
AcDbLine
  8
txt
 62
256
370
-1
 48
1.0
  6
BYLAYER
 10
0.7681311584988395
 20
0.8200842683883933
 30
0.0
 11
0.7884963257288348
 21
0.7500000010882869
 31
0.0
  0
LINE
  5
8B
100
AcDbEntity
100
AcDbLine
  8
txt
 62
256
370
-1
 48
1.0
  6
BYLAYER
 10
0.7884963257288348
 20
0.7500000010882869
 30
0.0
 11
0.8016985742141267
 21
0.7500000010882869
 31
0.0
  0
LINE
  5
8C
100
AcDbEntity
100
AcDbLine
  8
txt
 62
256
370
-1
 48
1.0
  6
BYLAYER
 10
0.8016985742141267
 20
0.7500000010882869
 30
0.0
 11
0.8278221658971014
 21
0.8500000010882869
 31
0.0
  0
LINE
  5
8D
100
AcDbEntity
100
AcDbLine
  8
txt
 62
256
370
-1
 48
1.0
  6
BYLAYER
 10
0.9063246176435952
 20
0.8500000010882869
 30
0.0
 11
0.8424201287095918
 21
0.8500000010882869
 31
0.0
  0
LINE
  5
8E
100
AcDbEntity
100
AcDbLine
  8
txt
 62
256
370
-1
 48
1.0
  6
BYLAYER
 10
0.8424201287095918
 20
0.8500000010882869
 30
0.0
 11
0.8424201287095918
 21
0.7500000010882869
 31
0.0
  0
LINE
  5
8F
100
AcDbEntity
100
AcDbLine
  8
txt
 62
256
370
-1
 48
1.0
  6
BYLAYER
 10
0.8424201287095918
 20
0.7500000010882869
 30
0.0
 11
0.9063246176435952
 21
0.7500000010882869
 31
0.0
  0
LINE
  5
90
100
AcDbEntity
100
AcDbLine
  8
txt
 62
256
370
-1
 48
1.0
  6
BYLAYER
 10
0.9063246176435952
 20
0.7500000010882869
 30
0.0
 11
0.9063246176435952
 21
0.7636235954501218
 31
0.0
  0
LINE
  5
91
100
AcDbEntity
100
AcDbLine
  8
txt
 62
256
370
-1
 48
1.0
  6
BYLAYER
 10
0.9063246176435952
 20
0.7636235954501218
 30
0.0
 11
0.857588667328095
 21
0.7636235954501218
 31
0.0
  0
LINE
  5
92
100
AcDbEntity
100
AcDbLine
  8
txt
 62
256
370
-1
 48
1.0
  6
BYLAYER
 10
0.857588667328095
 20
0.7636235954501218
 30
0.0
 11
0.857588667328095
 21
0.793539324131725
 31
0.0
  0
LINE
  5
93
100
AcDbEntity
100
AcDbLine
  8
txt
 62
256
370
-1
 48
1.0
  6
BYLAYER
 10
0.857588667328095
 20
0.793539324131725
 30
0.0
 11
0.899161698898892
 21
0.793539324131725
 31
0.0
  0
LINE
  5
94
100
AcDbEntity
100
AcDbLine
  8
txt
 62
256
370
-1
 48
1.0
  6
BYLAYER
 10
0.899161698898892
 20
0.793539324131725
 30
0.0
 11
0.899161698898892
 21
0.8071629198329902
 31
0.0
  0
LINE
  5
95
100
AcDbEntity
100
AcDbLine
  8
txt
 62
256
370
-1
 48
1.0
  6
BYLAYER
 10
0.899161698898892
 20
0.8071629198329902
 30
0.0
 11
0.857588667328095
 21
0.8071629198329902
 31
0.0
  0
LINE
  5
96
100
AcDbEntity
100
AcDbLine
  8
txt
 62
256
370
-1
 48
1.0
  6
BYLAYER
 10
0.857588667328095
 20
0.8071629198329902
 30
0.0
 11
0.857588667328095
 21
0.8363764000293012
 31
0.0
  0
LINE
  5
97
100
AcDbEntity
100
AcDbLine
  8
txt
 62
256
370
-1
 48
1.0
  6
BYLAYER
 10
0.857588667328095
 20
0.8363764000293012
 30
0.0
 11
0.9063246176435952
 21
0.8363764000293012
 31
0.0
  0
LINE
  5
98
100
AcDbEntity
100
AcDbLine
  8
txt
 62
256
370
-1
 48
1.0
  6
BYLAYER
 10
0.9063246176435952
 20
0.8363764000293012
 30
0.0
 11
0.9063246176435952
 21
0.8500000010882869
 31
0.0
  0
LINE
  5
99
100
AcDbEntity
100
AcDbLine
  8
txt
 62
256
370
-1
 48
1.0
  6
BYLAYER
 10
0.927106745455876
 20
0.8500000010882869
 30
0.0
 11
0.927106745455876
 21
0.7500000010882869
 31
0.0
  0
LINE
  5
9A
100
AcDbEntity
100
AcDbLine
  8
txt
 62
256
370
-1
 48
1.0
  6
BYLAYER
 10
0.927106745455876
 20
0.7500000010882869
 30
0.0
 11
0.9422752840743793
 21
0.7500000010882869
 31
0.0
  0
LINE
  5
9B
100
AcDbEntity
100
AcDbLine
  8
txt
 62
256
370
-1
 48
1.0
  6
BYLAYER
 10
0.9422752840743793
 20
0.7500000010882869
 30
0.0
 11
0.9422752840743793
 21
0.7921348298400013
 31
0.0
  0
LINE
  5
9C
100
AcDbEntity
100
AcDbLine
  8
txt
 62
256
370
-1
 48
1.0
  6
BYLAYER
 10
0.9422752840743793
 20
0.7921348298400013
 30
0.0
 11
0.961235959691511
 21
0.7921348298400013
 31
0.0
  0
LINE
  5
9D
100
AcDbEntity
100
AcDbLine
  8
txt
 62
256
370
-1
 48
1.0
  6
BYLAYER
 10
0.961235959691511
 20
0.7921348298400013
 30
0.0
 11
0.9823033740673681
 21
0.7500000010882869
 31
0.0
  0
LINE
  5
9E
100
AcDbEntity
100
AcDbLine
  8
txt
 62
256
370
-1
 48
1.0
  6
BYLAYER
 10
0.9823033740673681
 20
0.7500000010882869
 30
0.0
 11
0.9999999999999999
 21
0.7500000010882869
 31
0.0
  0
LINE
  5
9F
100
AcDbEntity
100
AcDbLine
  8
txt
 62
256
370
-1
 48
1.0
  6
BYLAYER
 10
0.9999999999999999
 20
0.7500000010882869
 30
0.0
 11
0.9769662914726412
 21
0.794241571277587
 31
0.0
  0
SPLINE
  5
A0
  8
txt
 62
256
370
-1
 48
1.0
  6
BYLAYER
100
AcDbEntity
100
AcDbSpline
 70
8
 71
3
 72
8
 73
4
 74
0
 40
0.0
 40
0.0
 40
0.0
 40
0.0
 40
1.0
 40
1.0
 40
1.0
 40
1.0
 10
0.9769662914726412
 20
0.794241571277587
 30
0.0
 10
0.9882022458064317
 20
0.7973314597909235
 30
0.0
 10
0.9969101114866634
 20
0.8064606726871282
 30
0.0
 10
0.9969101114866634
 20
0.8207865155342552
 30
0.0
  0
SPLINE
  5
A1
  8
txt
 62
256
370
-1
 48
1.0
  6
BYLAYER
100
AcDbEntity
100
AcDbSpline
 70
8
 71
3
 72
8
 73
4
 74
0
 40
0.0
 40
0.0
 40
0.0
 40
0.0
 40
1.0
 40
1.0
 40
1.0
 40
1.0
 10
0.9969101114866634
 20
0.8207865155342552
 30
0.0
 10
0.9969101114866634
 20
0.8377808943210251
 30
0.0
 10
0.9848314627209269
 20
0.8500000010882869
 30
0.0
 10
0.9658707897826554
 20
0.8500000010882869
 30
0.0
  0
LINE
  5
A2
100
AcDbEntity
100
AcDbLine
  8
txt
 62
256
370
-1
 48
1.0
  6
BYLAYER
 10
0.9658707897826554
 20
0.8500000010882869
 30
0.0
 11
0.927106745455876
 21
0.8500000010882869
 31
0.0
  0
SPLINE
  5
A3
  8
txt
 62
256
370
-1
 48
1.0
  6
BYLAYER
100
AcDbEntity
100
AcDbSpline
 70
8
 71
3
 72
8
 73
4
 74
0
 40
0.0
 40
0.0
 40
0.0
 40
0.0
 40
1.0
 40
1.0
 40
1.0
 40
1.0
 10
0.9647471954208205
 20
0.8363764000293012
 30
0.0
 10
0.9748595500350554
 20
0.8363764000293012
 30
0.0
 10
0.9817415742075905
 20
0.8304775229325172
 30
0.0
 10
0.9817415742075905
 20
0.8206460628904505
 30
0.0
  0
SPLINE
  5
A4
  8
txt
 62
256
370
-1
 48
1.0
  6
BYLAYER
100
AcDbEntity
100
AcDbSpline
 70
8
 71
3
 72
8
 73
4
 74
0
 40
0.0
 40
0.0
 40
0.0
 40
0.0
 40
1.0
 40
1.0
 40
1.0
 40
1.0
 10
0.9817415742075905
 20
0.8206460628904505
 30
0.0
 10
0.9817415742075905
 20
0.8108146028483838
 30
0.0
 10
0.9748595500350554
 20
0.8050561783954044
 30
0.0
 10
0.9647471954208205
 20
0.8050561783954044
 30
0.0
  0
LINE
  5
A5
100
AcDbEntity
100
AcDbLine
  8
txt
 62
256
370
-1
 48
1.0
  6
BYLAYER
 10
0.9647471954208205
 20
0.8050561783954044
 30
0.0
 11
0.9422752840743793
 21
0.8050561783954044
 31
0.0
  0
LINE
  5
A6
100
AcDbEntity
100
AcDbLine
  8
txt
 62
256
370
-1
 48
1.0
  6
BYLAYER
 10
0.9422752840743793
 20
0.8050561783954044
 30
0.0
 11
0.9422752840743793
 21
0.8363764000293012
 31
0.0
  0
LINE
  5
A7
100
AcDbEntity
100
AcDbLine
  8
txt
 62
256
370
-1
 48
1.0
  6
BYLAYER
 10
0.9422752840743793
 20
0.8363764000293012
 30
0.0
 11
0.9647471954208205
 21
0.8363764000293012
 31
0.0
  0
LINE
  5
A8
100
AcDbEntity
100
AcDbLine
  8
txt
 62
256
370
-1
 48
1.0
  6
BYLAYER
 10
0.6861043030853933
 20
0.2499999999999999
 30
0.0
 11
0.6861043030853933
 21
0.15
 31
0.0
  0
LINE
  5
A9
100
AcDbEntity
100
AcDbLine
  8
txt
 62
256
370
-1
 48
1.0
  6
BYLAYER
 10
0.6861043030853933
 20
0.15
 30
0.0
 11
0.7212166590390584
 21
0.15
 31
0.0
  0
SPLINE
  5
AA
  8
txt
 62
256
370
-1
 48
1.0
  6
BYLAYER
100
AcDbEntity
100
AcDbSpline
 70
8
 71
3
 72
8
 73
4
 74
0
 40
0.0
 40
0.0
 40
0.0
 40
0.0
 40
1.0
 40
1.0
 40
1.0
 40
1.0
 10
0.7212166590390584
 20
0.15
 30
0.0
 10
0.7337166603784886
 20
0.15
 30
0.0
 10
0.7425649733448044
 20
0.1539325839498551
 30
0.0
 10
0.7495874448034234
 20
0.1626404486255143
 30
0.0
  0
SPLINE
  5
AB
  8
txt
 62
256
370
-1
 48
1.0
  6
BYLAYER
100
AcDbEntity
100
AcDbSpline
 70
8
 71
3
 72
8
 73
4
 74
0
 40
0.0
 40
0.0
 40
0.0
 40
0.0
 40
1.0
 40
1.0
 40
1.0
 40
1.0
 10
0.7495874448034234
 20
0.1626404486255143
 30
0.0
 10
0.7568908161919314
 20
0.1716292128962047
 30
0.0
 10
0.7571717161218203
 20
0.1839887629312603
 30
0.0
 10
0.7571717161218203
 20
0.2
 30
0.0
  0
SPLINE
  5
AC
  8
txt
 62
256
370
-1
 48
1.0
  6
BYLAYER
100
AcDbEntity
100
AcDbSpline
 70
8
 71
3
 72
8
 73
4
 74
0
 40
0.0
 40
0.0
 40
0.0
 40
0.0
 40
1.0
 40
1.0
 40
1.0
 40
1.0
 10
0.7571717161218203
 20
0.2
 30
0.0
 10
0.7571717161218203
 20
0.2160112317110191
 30
0.0
 10
0.7568908161919314
 20
0.2283707804066445
 30
0.0
 10
0.7495874448034234
 20
0.2373595460167651
 30
0.0
  0
SPLINE
  5
AD
  8
txt
 62
256
370
-1
 48
1.0
  6
BYLAYER
100
AcDbEntity
100
AcDbSpline
 70
8
 71
3
 72
8
 73
4
 74
0
 40
0.0
 40
0.0
 40
0.0
 40
0.0
 40
1.0
 40
1.0
 40
1.0
 40
1.0
 10
0.7495874448034234
 20
0.2373595460167651
 30
0.0
 10
0.7425649733448044
 20
0.2460674116969969
 30
0.0
 10
0.7337166603784886
 20
0.2499999999999999
 30
0.0
 10
0.7212166590390584
 20
0.2499999999999999
 30
0.0
  0
LINE
  5
AE
100
AcDbEntity
100
AcDbLine
  8
txt
 62
256
370
-1
 48
1.0
  6
BYLAYER
 10
0.7212166590390584
 20
0.2499999999999999
 30
0.0
 11
0.6861043030853933
 21
0.2499999999999999
 31
0.0
  0
SPLINE
  5
AF
  8
txt
 62
256
370
-1
 48
1.0
  6
BYLAYER
100
AcDbEntity
100
AcDbSpline
 70
8
 71
3
 72
8
 73
4
 74
0
 40
0.0
 40
0.0
 40
0.0
 40
0.0
 40
1.0
 40
1.0
 40
1.0
 40
1.0
 10
0.7195312701751663
 20
0.2363763989410144
 30
0.0
 10
0.7266941889198695
 20
0.2363763989410144
 30
0.0
 10
0.7324526133728488
 20
0.2345505574333175
 30
0.0
 10
0.7366660962480203
 20
0.2296348274122842
 30
0.0
  0
SPLINE
  5
B0
  8
txt
 62
256
370
-1
 48
1.0
  6
BYLAYER
100
AcDbEntity
100
AcDbSpline
 70
8
 71
3
 72
8
 73
4
 74
0
 40
0.0
 40
0.0
 40
0.0
 40
0.0
 40
1.0
 40
1.0
 40
1.0
 40
1.0
 10
0.7366660962480203
 20
0.2296348274122842
 30
0.0
 10
0.7415818262690537
 20
0.2241572975314731
 30
0.0
 10
0.7420031788427472
 20
0.2148876373491841
 30
0.0
 10
0.7420031788427472
 20
0.2
 30
0.0
  0
SPLINE
  5
B1
  8
txt
 62
256
370
-1
 48
1.0
  6
BYLAYER
100
AcDbEntity
100
AcDbSpline
 70
8
 71
3
 72
8
 73
4
 74
0
 40
0.0
 40
0.0
 40
0.0
 40
0.0
 40
1.0
 40
1.0
 40
1.0
 40
1.0
 10
0.7420031788427472
 20
0.2
 30
0.0
 10
0.7420031788427472
 20
0.1851123572930952
 30
0.0
 10
0.7415818262690537
 20
0.175842694431946
 30
0.0
 10
0.7366660962480203
 20
0.1703651672299952
 30
0.0
  0
SPLINE
  5
B2
  8
txt
 62
256
370
-1
 48
1.0
  6
BYLAYER
100
AcDbEntity
100
AcDbSpline
 70
8
 71
3
 72
8
 73
4
 74
0
 40
0.0
 40
0.0
 40
0.0
 40
0.0
 40
1.0
 40
1.0
 40
1.0
 40
1.0
 10
0.7366660962480203
 20
0.1703651672299952
 30
0.0
 10
0.7324526133728488
 20
0.1654494372089619
 30
0.0
 10
0.7266941889198695
 20
0.1636235943618349
 30
0.0
 10
0.7195312701751663
 20
0.1636235943618349
 30
0.0
  0
LINE
  5
B3
100
AcDbEntity
100
AcDbLine
  8
txt
 62
256
370
-1
 48
1.0
  6
BYLAYER
 10
0.7195312701751663
 20
0.1636235943618349
 30
0.0
 11
0.7012728417038965
 21
0.1636235943618349
 31
0.0
  0
LINE
  5
B4
100
AcDbEntity
100
AcDbLine
  8
txt
 62
256
370
-1
 48
1.0
  6
BYLAYER
 10
0.7012728417038965
 20
0.1636235943618349
 30
0.0
 11
0.7012728417038965
 21
0.2363763989410144
 31
0.0
  0
LINE
  5
B5
100
AcDbEntity
100
AcDbLine
  8
txt
 62
256
370
-1
 48
1.0
  6
BYLAYER
 10
0.7012728417038965
 20
0.2363763989410144
 30
0.0
 11
0.7195312701751663
 21
0.2363763989410144
 31
0.0
  0
LINE
  5
B6
100
AcDbEntity
100
AcDbLine
  8
txt
 62
256
370
-1
 48
1.0
  6
BYLAYER
 10
0.8151685533522346
 20
0.2499999999999999
 30
0.0
 11
0.8029494492638329
 21
0.2499999999999999
 31
0.0
  0
LINE
  5
B7
100
AcDbEntity
100
AcDbLine
  8
txt
 62
256
370
-1
 48
1.0
  6
BYLAYER
 10
0.8029494492638329
 20
0.2499999999999999
 30
0.0
 11
0.7662921488023564
 21
0.15
 31
0.0
  0
LINE
  5
B8
100
AcDbEntity
100
AcDbLine
  8
txt
 62
256
370
-1
 48
1.0
  6
BYLAYER
 10
0.7662921488023564
 20
0.15
 30
0.0
 11
0.7824438334083235
 21
0.15
 31
0.0
  0
LINE
  5
B9
100
AcDbEntity
100
AcDbLine
  8
txt
 62
256
370
-1
 48
1.0
  6
BYLAYER
 10
0.7824438334083235
 20
0.15
 30
0.0
 11
0.7893258562414281
 21
0.1700842686395365
 31
0.0
  0
LINE
  5
BA
100
AcDbEntity
100
AcDbLine
  8
txt
 62
256
370
-1
 48
1.0
  6
BYLAYER
 10
0.7893258562414281
 20
0.1700842686395365
 30
0.0
 11
0.828792143695779
 21
0.1700842686395365
 31
0.0
  0
LINE
  5
BB
100
AcDbEntity
100
AcDbLine
  8
txt
 62
256
370
-1
 48
1.0
  6
BYLAYER
 10
0.828792143695779
 20
0.1700842686395365
 30
0.0
 11
0.8356741678683139
 21
0.15
 31
0.0
  0
LINE
  5
BC
100
AcDbEntity
100
AcDbLine
  8
txt
 62
256
370
-1
 48
1.0
  6
BYLAYER
 10
0.8356741678683139
 20
0.15
 30
0.0
 11
0.8518258522231378
 21
0.15
 31
0.0
  0
LINE
  5
BD
100
AcDbEntity
100
AcDbLine
  8
txt
 62
256
370
-1
 48
1.0
  6
BYLAYER
 10
0.8518258522231378
 20
0.15
 30
0.0
 11
0.8151685533522346
 21
0.2499999999999999
 31
0.0
  0
LINE
  5
BE
100
AcDbEntity
100
AcDbLine
  8
txt
 62
256
370
-1
 48
1.0
  6
BYLAYER
 10
0.8089887763255615
 20
0.2273876386886143
 30
0.0
 11
0.8244382135345235
 21
0.1830056158555095
 31
0.0
  0
LINE
  5
BF
100
AcDbEntity
100
AcDbLine
  8
txt
 62
256
370
-1
 48
1.0
  6
BYLAYER
 10
0.8244382135345235
 20
0.1830056158555095
 30
0.0
 11
0.793679789081544
 21
0.1830056158555095
 31
0.0
  0
LINE
  5
C0
100
AcDbEntity
100
AcDbLine
  8
txt
 62
256
370
-1
 48
1.0
  6
BYLAYER
 10
0.793679789081544
 20
0.1830056158555095
 30
0.0
 11
0.8089887763255615
 21
0.2273876386886143
 31
0.0
  0
LINE
  5
C1
100
AcDbEntity
100
AcDbLine
  8
txt
 62
256
370
-1
 48
1.0
  6
BYLAYER
 10
0.91825843115013
 20
0.2499999999999999
 30
0.0
 11
0.8480337165639393
 21
0.2499999999999999
 31
0.0
  0
LINE
  5
C2
100
AcDbEntity
100
AcDbLine
  8
txt
 62
256
370
-1
 48
1.0
  6
BYLAYER
 10
0.8480337165639393
 20
0.2499999999999999
 30
0.0
 11
0.8480337165639393
 21
0.2363763989410144
 31
0.0
  0
LINE
  5
C3
100
AcDbEntity
100
AcDbLine
  8
txt
 62
256
370
-1
 48
1.0
  6
BYLAYER
 10
0.8480337165639393
 20
0.2363763989410144
 30
0.0
 11
0.8755618052174982
 21
0.2363763989410144
 31
0.0
  0
LINE
  5
C4
100
AcDbEntity
100
AcDbLine
  8
txt
 62
256
370
-1
 48
1.0
  6
BYLAYER
 10
0.8755618052174982
 20
0.2363763989410144
 30
0.0
 11
0.8755618052174982
 21
0.15
 31
0.0
  0
LINE
  5
C5
100
AcDbEntity
100
AcDbLine
  8
txt
 62
256
370
-1
 48
1.0
  6
BYLAYER
 10
0.8755618052174982
 20
0.15
 30
0.0
 11
0.8907303451754315
 21
0.15
 31
0.0
  0
LINE
  5
C6
100
AcDbEntity
100
AcDbLine
  8
txt
 62
256
370
-1
 48
1.0
  6
BYLAYER
 10
0.8907303451754315
 20
0.15
 30
0.0
 11
0.8907303451754315
 21
0.2363763989410144
 31
0.0
  0
LINE
  5
C7
100
AcDbEntity
100
AcDbLine
  8
txt
 62
256
370
-1
 48
1.0
  6
BYLAYER
 10
0.8907303451754315
 20
0.2363763989410144
 30
0.0
 11
0.91825843115013
 21
0.2363763989410144
 31
0.0
  0
LINE
  5
C8
100
AcDbEntity
100
AcDbLine
  8
txt
 62
256
370
-1
 48
1.0
  6
BYLAYER
 10
0.91825843115013
 20
0.2363763989410144
 30
0.0
 11
0.91825843115013
 21
0.2499999999999999
 31
0.0
  0
LINE
  5
C9
100
AcDbEntity
100
AcDbLine
  8
txt
 62
256
370
-1
 48
1.0
  6
BYLAYER
 10
0.9633427011290967
 20
0.2499999999999999
 30
0.0
 11
0.951123597040695
 21
0.2499999999999999
 31
0.0
  0
LINE
  5
CA
100
AcDbEntity
100
AcDbLine
  8
txt
 62
256
370
-1
 48
1.0
  6
BYLAYER
 10
0.951123597040695
 20
0.2499999999999999
 30
0.0
 11
0.9144662965792185
 21
0.15
 31
0.0
  0
LINE
  5
CB
100
AcDbEntity
100
AcDbLine
  8
txt
 62
256
370
-1
 48
1.0
  6
BYLAYER
 10
0.9144662965792185
 20
0.15
 30
0.0
 11
0.9306179811851856
 21
0.15
 31
0.0
  0
LINE
  5
CC
100
AcDbEntity
100
AcDbLine
  8
txt
 62
256
370
-1
 48
1.0
  6
BYLAYER
 10
0.9306179811851856
 20
0.15
 30
0.0
 11
0.9375000040182903
 21
0.1700842686395365
 31
0.0
  0
LINE
  5
CD
100
AcDbEntity
100
AcDbLine
  8
txt
 62
256
370
-1
 48
1.0
  6
BYLAYER
 10
0.9375000040182903
 20
0.1700842686395365
 30
0.0
 11
0.9769662914726411
 21
0.1700842686395365
 31
0.0
  0
LINE
  5
CE
100
AcDbEntity
100
AcDbLine
  8
txt
 62
256
370
-1
 48
1.0
  6
BYLAYER
 10
0.9769662914726411
 20
0.1700842686395365
 30
0.0
 11
0.9838483156451761
 21
0.15
 31
0.0
  0
LINE
  5
CF
100
AcDbEntity
100
AcDbLine
  8
txt
 62
256
370
-1
 48
1.0
  6
BYLAYER
 10
0.9838483156451761
 20
0.15
 30
0.0
 11
0.9999999999999999
 21
0.15
 31
0.0
  0
LINE
  5
D0
100
AcDbEntity
100
AcDbLine
  8
txt
 62
256
370
-1
 48
1.0
  6
BYLAYER
 10
0.9999999999999999
 20
0.15
 30
0.0
 11
0.9633427011290967
 21
0.2499999999999999
 31
0.0
  0
LINE
  5
D1
100
AcDbEntity
100
AcDbLine
  8
txt
 62
256
370
-1
 48
1.0
  6
BYLAYER
 10
0.9571629241024237
 20
0.2273876386886143
 30
0.0
 11
0.9726123613113855
 21
0.1830056158555095
 31
0.0
  0
LINE
  5
D2
100
AcDbEntity
100
AcDbLine
  8
txt
 62
256
370
-1
 48
1.0
  6
BYLAYER
 10
0.9726123613113855
 20
0.1830056158555095
 30
0.0
 11
0.9418539368584061
 21
0.1830056158555095
 31
0.0
  0
LINE
  5
D3
100
AcDbEntity
100
AcDbLine
  8
txt
 62
256
370
-1
 48
1.0
  6
BYLAYER
 10
0.9418539368584061
 20
0.1830056158555095
 30
0.0
 11
0.9571629241024237
 21
0.2273876386886143
 31
0.0
  0
LINE
  5
D4
100
AcDbEntity
100
AcDbLine
  8
txt
 62
256
370
-1
 48
1.0
  6
BYLAYER
 10
0.1
 20
0.5500000010882869
 30
0.0
 11
0.1
 21
0.450000001088287
 31
0.0
  0
LINE
  5
D5
100
AcDbEntity
100
AcDbLine
  8
txt
 62
256
370
-1
 48
1.0
  6
BYLAYER
 10
0.1
 20
0.450000001088287
 30
0.0
 11
0.1351123559536651
 21
0.450000001088287
 31
0.0
  0
SPLINE
  5
D6
  8
txt
 62
256
370
-1
 48
1.0
  6
BYLAYER
100
AcDbEntity
100
AcDbSpline
 70
8
 71
3
 72
8
 73
4
 74
0
 40
0.0
 40
0.0
 40
0.0
 40
0.0
 40
1.0
 40
1.0
 40
1.0
 40
1.0
 10
0.1351123559536651
 20
0.450000001088287
 30
0.0
 10
0.1476123572930953
 20
0.450000001088287
 30
0.0
 10
0.1564606702594112
 20
0.4539325850381422
 30
0.0
 10
0.1634831417180302
 20
0.4626404497138012
 30
0.0
  0
SPLINE
  5
D7
  8
txt
 62
256
370
-1
 48
1.0
  6
BYLAYER
100
AcDbEntity
100
AcDbSpline
 70
8
 71
3
 72
8
 73
4
 74
0
 40
0.0
 40
0.0
 40
0.0
 40
0.0
 40
1.0
 40
1.0
 40
1.0
 40
1.0
 10
0.1634831417180302
 20
0.4626404497138012
 30
0.0
 10
0.1707865131065381
 20
0.4716292139844918
 30
0.0
 10
0.171067413036427
 20
0.4839887640195473
 30
0.0
 10
0.171067413036427
 20
0.500000001088287
 30
0.0
  0
SPLINE
  5
D8
  8
txt
 62
256
370
-1
 48
1.0
  6
BYLAYER
100
AcDbEntity
100
AcDbSpline
 70
8
 71
3
 72
8
 73
4
 74
0
 40
0.0
 40
0.0
 40
0.0
 40
0.0
 40
1.0
 40
1.0
 40
1.0
 40
1.0
 10
0.171067413036427
 20
0.500000001088287
 30
0.0
 10
0.171067413036427
 20
0.5160112327993061
 30
0.0
 10
0.1707865131065381
 20
0.5283707814949316
 30
0.0
 10
0.1634831417180302
 20
0.5373595471050521
 30
0.0
  0
SPLINE
  5
D9
  8
txt
 62
256
370
-1
 48
1.0
  6
BYLAYER
100
AcDbEntity
100
AcDbSpline
 70
8
 71
3
 72
8
 73
4
 74
0
 40
0.0
 40
0.0
 40
0.0
 40
0.0
 40
1.0
 40
1.0
 40
1.0
 40
1.0
 10
0.1634831417180302
 20
0.5373595471050521
 30
0.0
 10
0.1564606702594112
 20
0.5460674127852838
 30
0.0
 10
0.1476123572930953
 20
0.5500000010882869
 30
0.0
 10
0.1351123559536651
 20
0.5500000010882869
 30
0.0
  0
LINE
  5
DA
100
AcDbEntity
100
AcDbLine
  8
txt
 62
256
370
-1
 48
1.0
  6
BYLAYER
 10
0.1351123559536651
 20
0.5500000010882869
 30
0.0
 11
0.1
 21
0.5500000010882869
 31
0.0
  0
SPLINE
  5
DB
  8
txt
 62
256
370
-1
 48
1.0
  6
BYLAYER
100
AcDbEntity
100
AcDbSpline
 70
8
 71
3
 72
8
 73
4
 74
0
 40
0.0
 40
0.0
 40
0.0
 40
0.0
 40
1.0
 40
1.0
 40
1.0
 40
1.0
 10
0.133426967089773
 20
0.5363764000293013
 30
0.0
 10
0.1405898858344762
 20
0.5363764000293013
 30
0.0
 10
0.1463483102874556
 20
0.5345505585216045
 30
0.0
 10
0.1505617931626271
 20
0.5296348285005712
 30
0.0
  0
SPLINE
  5
DC
  8
txt
 62
256
370
-1
 48
1.0
  6
BYLAYER
100
AcDbEntity
100
AcDbSpline
 70
8
 71
3
 72
8
 73
4
 74
0
 40
0.0
 40
0.0
 40
0.0
 40
0.0
 40
1.0
 40
1.0
 40
1.0
 40
1.0
 10
0.1505617931626271
 20
0.5296348285005712
 30
0.0
 10
0.1554775231836604
 20
0.5241572986197601
 30
0.0
 10
0.155898875757354
 20
0.5148876384374711
 30
0.0
 10
0.155898875757354
 20
0.500000001088287
 30
0.0
  0
SPLINE
  5
DD
  8
txt
 62
256
370
-1
 48
1.0
  6
BYLAYER
100
AcDbEntity
100
AcDbSpline
 70
8
 71
3
 72
8
 73
4
 74
0
 40
0.0
 40
0.0
 40
0.0
 40
0.0
 40
1.0
 40
1.0
 40
1.0
 40
1.0
 10
0.155898875757354
 20
0.500000001088287
 30
0.0
 10
0.155898875757354
 20
0.4851123583813822
 30
0.0
 10
0.1554775231836604
 20
0.4758426955202331
 30
0.0
 10
0.1505617931626271
 20
0.4703651683182822
 30
0.0
  0
SPLINE
  5
DE
  8
txt
 62
256
370
-1
 48
1.0
  6
BYLAYER
100
AcDbEntity
100
AcDbSpline
 70
8
 71
3
 72
8
 73
4
 74
0
 40
0.0
 40
0.0
 40
0.0
 40
0.0
 40
1.0
 40
1.0
 40
1.0
 40
1.0
 10
0.1505617931626271
 20
0.4703651683182822
 30
0.0
 10
0.1463483102874556
 20
0.4654494382972489
 30
0.0
 10
0.1405898858344762
 20
0.4636235954501219
 30
0.0
 10
0.133426967089773
 20
0.4636235954501219
 30
0.0
  0
LINE
  5
DF
100
AcDbEntity
100
AcDbLine
  8
txt
 62
256
370
-1
 48
1.0
  6
BYLAYER
 10
0.133426967089773
 20
0.4636235954501219
 30
0.0
 11
0.1151685386185032
 21
0.4636235954501219
 31
0.0
  0
LINE
  5
E0
100
AcDbEntity
100
AcDbLine
  8
txt
 62
256
370
-1
 48
1.0
  6
BYLAYER
 10
0.1151685386185032
 20
0.4636235954501219
 30
0.0
 11
0.1151685386185032
 21
0.5363764000293013
 31
0.0
  0
LINE
  5
E1
100
AcDbEntity
100
AcDbLine
  8
txt
 62
256
370
-1
 48
1.0
  6
BYLAYER
 10
0.1151685386185032
 20
0.5363764000293013
 30
0.0
 11
0.133426967089773
 21
0.5363764000293013
 31
0.0
  0
LINE
  5
E2
100
AcDbEntity
100
AcDbLine
  8
txt
 62
256
370
-1
 48
1.0
  6
BYLAYER
 10
0.2574350306734858
 20
0.5500000010882869
 30
0.0
 11
0.1935305417394825
 21
0.5500000010882869
 31
0.0
  0
LINE
  5
E3
100
AcDbEntity
100
AcDbLine
  8
txt
 62
256
370
-1
 48
1.0
  6
BYLAYER
 10
0.1935305417394825
 20
0.5500000010882869
 30
0.0
 11
0.1935305417394825
 21
0.450000001088287
 31
0.0
  0
LINE
  5
E4
100
AcDbEntity
100
AcDbLine
  8
txt
 62
256
370
-1
 48
1.0
  6
BYLAYER
 10
0.1935305417394825
 20
0.450000001088287
 30
0.0
 11
0.2574350306734858
 21
0.450000001088287
 31
0.0
  0
LINE
  5
E5
100
AcDbEntity
100
AcDbLine
  8
txt
 62
256
370
-1
 48
1.0
  6
BYLAYER
 10
0.2574350306734858
 20
0.450000001088287
 30
0.0
 11
0.2574350306734858
 21
0.4636235954501219
 31
0.0
  0
LINE
  5
E6
100
AcDbEntity
100
AcDbLine
  8
txt
 62
256
370
-1
 48
1.0
  6
BYLAYER
 10
0.2574350306734858
 20
0.4636235954501219
 30
0.0
 11
0.2086990803579857
 21
0.4636235954501219
 31
0.0
  0
LINE
  5
E7
100
AcDbEntity
100
AcDbLine
  8
txt
 62
256
370
-1
 48
1.0
  6
BYLAYER
 10
0.2086990803579857
 20
0.4636235954501219
 30
0.0
 11
0.2086990803579857
 21
0.4935393241317251
 31
0.0
  0
LINE
  5
E8
100
AcDbEntity
100
AcDbLine
  8
txt
 62
256
370
-1
 48
1.0
  6
BYLAYER
 10
0.2086990803579857
 20
0.4935393241317251
 30
0.0
 11
0.2502721119287826
 21
0.4935393241317251
 31
0.0
  0
LINE
  5
E9
100
AcDbEntity
100
AcDbLine
  8
txt
 62
256
370
-1
 48
1.0
  6
BYLAYER
 10
0.2502721119287826
 20
0.4935393241317251
 30
0.0
 11
0.2502721119287826
 21
0.5071629198329902
 31
0.0
  0
LINE
  5
EA
100
AcDbEntity
100
AcDbLine
  8
txt
 62
256
370
-1
 48
1.0
  6
BYLAYER
 10
0.2502721119287826
 20
0.5071629198329902
 30
0.0
 11
0.2086990803579857
 21
0.5071629198329902
 31
0.0
  0
LINE
  5
EB
100
AcDbEntity
100
AcDbLine
  8
txt
 62
256
370
-1
 48
1.0
  6
BYLAYER
 10
0.2086990803579857
 20
0.5071629198329902
 30
0.0
 11
0.2086990803579857
 21
0.5363764000293013
 31
0.0
  0
LINE
  5
EC
100
AcDbEntity
100
AcDbLine
  8
txt
 62
256
370
-1
 48
1.0
  6
BYLAYER
 10
0.2086990803579857
 20
0.5363764000293013
 30
0.0
 11
0.2574350306734858
 21
0.5363764000293013
 31
0.0
  0
LINE
  5
ED
100
AcDbEntity
100
AcDbLine
  8
txt
 62
256
370
-1
 48
1.0
  6
BYLAYER
 10
0.2574350306734858
 20
0.5363764000293013
 30
0.0
 11
0.2574350306734858
 21
0.5500000010882869
 31
0.0
  0
LINE
  5
EE
100
AcDbEntity
100
AcDbLine
  8
txt
 62
256
370
-1
 48
1.0
  6
BYLAYER
 10
0.2988632243062208
 20
0.450000001088287
 30
0.0
 11
0.3105205258559843
 21
0.450000001088287
 31
0.0
  0
LINE
  5
EF
100
AcDbEntity
100
AcDbLine
  8
txt
 62
256
370
-1
 48
1.0
  6
BYLAYER
 10
0.3105205258559843
 20
0.450000001088287
 30
0.0
 11
0.3435261417114938
 21
0.5500000010882869
 31
0.0
  0
LINE
  5
F0
100
AcDbEntity
100
AcDbLine
  8
txt
 62
256
370
-1
 48
1.0
  6
BYLAYER
 10
0.3435261417114938
 20
0.5500000010882869
 30
0.0
 11
0.3277958099303636
 21
0.5500000010882869
 31
0.0
  0
LINE
  5
F1
100
AcDbEntity
100
AcDbLine
  8
txt
 62
256
370
-1
 48
1.0
  6
BYLAYER
 10
0.3277958099303636
 20
0.5500000010882869
 30
0.0
 11
0.3047621014030049
 21
0.4771067425258727
 31
0.0
  0
LINE
  5
F2
100
AcDbEntity
100
AcDbLine
  8
txt
 62
256
370
-1
 48
1.0
  6
BYLAYER
 10
0.3047621014030049
 20
0.4771067425258727
 30
0.0
 11
0.2817283942150763
 21
0.5500000010882869
 31
0.0
  0
LINE
  5
F3
100
AcDbEntity
100
AcDbLine
  8
txt
 62
256
370
-1
 48
1.0
  6
BYLAYER
 10
0.2817283942150763
 20
0.5500000010882869
 30
0.0
 11
0.2659980579133693
 21
0.5500000010882869
 31
0.0
  0
LINE
  5
F4
100
AcDbEntity
100
AcDbLine
  8
txt
 62
256
370
-1
 48
1.0
  6
BYLAYER
 10
0.2659980579133693
 20
0.5500000010882869
 30
0.0
 11
0.2988632243062208
 21
0.450000001088287
 31
0.0
  0
LINE
  5
F5
100
AcDbEntity
100
AcDbLine
  8
txt
 62
256
370
-1
 48
1.0
  6
BYLAYER
 10
0.3725860080235079
 20
0.5500000010882869
 30
0.0
 11
0.3574174694050047
 21
0.5500000010882869
 31
0.0
  0
LINE
  5
F6
100
AcDbEntity
100
AcDbLine
  8
txt
 62
256
370
-1
 48
1.0
  6
BYLAYER
 10
0.3574174694050047
 20
0.5500000010882869
 30
0.0
 11
0.3574174694050047
 21
0.450000001088287
 31
0.0
  0
LINE
  5
F7
100
AcDbEntity
100
AcDbLine
  8
txt
 62
256
370
-1
 48
1.0
  6
BYLAYER
 10
0.3574174694050047
 20
0.450000001088287
 30
0.0
 11
0.3725860080235079
 21
0.450000001088287
 31
0.0
  0
LINE
  5
F8
100
AcDbEntity
100
AcDbLine
  8
txt
 62
256
370
-1
 48
1.0
  6
BYLAYER
 10
0.3725860080235079
 20
0.450000001088287
 30
0.0
 11
0.3725860080235079
 21
0.5500000010882869
 31
0.0
  0
SPLINE
  5
F9
  8
txt
 62
256
370
-1
 48
1.0
  6
BYLAYER
100
AcDbEntity
100
AcDbSpline
 70
8
 71
3
 72
8
 73
4
 74
0
 40
0.0
 40
0.0
 40
0.0
 40
0.0
 40
1.0
 40
1.0
 40
1.0
 40
1.0
 10
0.4309998018179174
 20
0.550842695520233
 30
0.0
 10
0.4200447474140158
 20
0.550842695520233
 30
0.0
 10
0.4116177816636729
 20
0.5471910125048394
 30
0.0
 10
0.4051571087254014
 20
0.5407303301905569
 30
0.0
  0
SPLINE
  5
FA
  8
txt
 62
256
370
-1
 48
1.0
  6
BYLAYER
100
AcDbEntity
100
AcDbSpline
 70
8
 71
3
 72
8
 73
4
 74
0
 40
0.0
 40
0.0
 40
0.0
 40
0.0
 40
1.0
 40
1.0
 40
1.0
 40
1.0
 10
0.4051571087254014
 20
0.5407303301905569
 30
0.0
 10
0.3954660973088491
 20
0.5308988755062108
 30
0.0
 10
0.395044749423161
 20
0.5209269628203395
 30
0.0
 10
0.395044749423161
 20
0.500000001088287
 30
0.0
  0
SPLINE
  5
FB
  8
txt
 62
256
370
-1
 48
1.0
  6
BYLAYER
100
AcDbEntity
100
AcDbSpline
 70
8
 71
3
 72
8
 73
4
 74
0
 40
0.0
 40
0.0
 40
0.0
 40
0.0
 40
1.0
 40
1.0
 40
1.0
 40
1.0
 10
0.395044749423161
 20
0.500000001088287
 30
0.0
 10
0.395044749423161
 20
0.479073033998514
 30
0.0
 10
0.3954660973088491
 20
0.4691011239915028
 30
0.0
 10
0.4051571087254014
 20
0.4592696632797211
 30
0.0
  0
SPLINE
  5
FC
  8
txt
 62
256
370
-1
 48
1.0
  6
BYLAYER
100
AcDbEntity
100
AcDbSpline
 70
8
 71
3
 72
8
 73
4
 74
0
 40
0.0
 40
0.0
 40
0.0
 40
0.0
 40
1.0
 40
1.0
 40
1.0
 40
1.0
 10
0.4051571087254014
 20
0.4592696632797211
 30
0.0
 10
0.4116177816636729
 20
0.4528089896717346
 30
0.0
 10
0.4200447474140158
 20
0.4491573044797669
 30
0.0
 10
0.4309998018179174
 20
0.4491573044797669
 30
0.0
  0
SPLINE
  5
FD
  8
txt
 62
256
370
-1
 48
1.0
  6
BYLAYER
100
AcDbEntity
100
AcDbSpline
 70
8
 71
3
 72
8
 73
4
 74
0
 40
0.0
 40
0.0
 40
0.0
 40
0.0
 40
1.0
 40
1.0
 40
1.0
 40
1.0
 10
0.4309998018179174
 20
0.4491573044797669
 30
0.0
 10
0.449258227610327
 20
0.4491573044797669
 30
0.0
 10
0.4631627232414809
 20
0.4601123603905274
 30
0.0
 10
0.4666739589707904
 20
0.4799157311093203
 30
0.0
  0
LINE
  5
FE
100
AcDbEntity
100
AcDbLine
  8
txt
 62
256
370
-1
 48
1.0
  6
BYLAYER
 10
0.4666739589707904
 20
0.4799157311093203
 30
0.0
 11
0.4512245217618285
 21
0.4799157311093203
 31
0.0
  0
SPLINE
  5
FF
  8
txt
 62
256
370
-1
 48
1.0
  6
BYLAYER
100
AcDbEntity
100
AcDbSpline
 70
8
 71
3
 72
8
 73
4
 74
0
 40
0.0
 40
0.0
 40
0.0
 40
0.0
 40
1.0
 40
1.0
 40
1.0
 40
1.0
 10
0.4512245217618285
 20
0.4799157311093203
 30
0.0
 10
0.4489773330381586
 20
0.4696629211724203
 30
0.0
 10
0.4420953088656238
 20
0.4627808996787457
 30
0.0
 10
0.4309998018179174
 20
0.4627808996787457
 30
0.0
  0
SPLINE
  5
100
  8
txt
 62
256
370
-1
 48
1.0
  6
BYLAYER
100
AcDbEntity
100
AcDbSpline
 70
8
 71
3
 72
8
 73
4
 74
0
 40
0.0
 40
0.0
 40
0.0
 40
0.0
 40
1.0
 40
1.0
 40
1.0
 40
1.0
 10
0.4309998018179174
 20
0.4627808996787457
 30
0.0
 10
0.4249604774350491
 20
0.4627808996787457
 30
0.0
 10
0.4199042974490713
 20
0.4648876411163314
 30
0.0
 10
0.4162526144336777
 20
0.4688202254010441
 30
0.0
  0
SPLINE
  5
101
  8
txt
 62
256
370
-1
 48
1.0
  6
BYLAYER
100
AcDbEntity
100
AcDbSpline
 70
8
 71
3
 72
8
 73
4
 74
0
 40
0.0
 40
0.0
 40
0.0
 40
0.0
 40
1.0
 40
1.0
 40
1.0
 40
1.0
 10
0.4162526144336777
 20
0.4688202254010441
 30
0.0
 10
0.4111964344476999
 20
0.4741573039774806
 30
0.0
 10
0.4102132873719491
 20
0.4801966283603489
 30
0.0
 10
0.4102132873719491
 20
0.500000001088287
 30
0.0
  0
SPLINE
  5
102
  8
txt
 62
256
370
-1
 48
1.0
  6
BYLAYER
100
AcDbEntity
100
AcDbSpline
 70
8
 71
3
 72
8
 73
4
 74
0
 40
0.0
 40
0.0
 40
0.0
 40
0.0
 40
1.0
 40
1.0
 40
1.0
 40
1.0
 10
0.4102132873719491
 20
0.500000001088287
 30
0.0
 10
0.4102132873719491
 20
0.5198033684585045
 30
0.0
 10
0.4111964344476999
 20
0.5258426928413727
 30
0.0
 10
0.4162526144336777
 20
0.5311797700783791
 30
0.0
  0
SPLINE
  5
103
  8
txt
 62
256
370
-1
 48
1.0
  6
BYLAYER
100
AcDbEntity
100
AcDbSpline
 70
8
 71
3
 72
8
 73
4
 74
0
 40
0.0
 40
0.0
 40
0.0
 40
0.0
 40
1.0
 40
1.0
 40
1.0
 40
1.0
 10
0.4162526144336777
 20
0.5311797700783791
 30
0.0
 10
0.4199042974490713
 20
0.5351123583813823
 30
0.0
 10
0.4249604774350491
 20
0.537219099818968
 30
0.0
 10
0.4309998018179174
 20
0.537219099818968
 30
0.0
  0
SPLINE
  5
104
  8
txt
 62
256
370
-1
 48
1.0
  6
BYLAYER
100
AcDbEntity
100
AcDbSpline
 70
8
 71
3
 72
8
 73
4
 74
0
 40
0.0
 40
0.0
 40
0.0
 40
0.0
 40
1.0
 40
1.0
 40
1.0
 40
1.0
 10
0.4309998018179174
 20
0.537219099818968
 30
0.0
 10
0.4420953088656238
 20
0.537219099818968
 30
0.0
 10
0.4489773330381586
 20
0.5303370756464331
 30
0.0
 10
0.4512245217618285
 20
0.5200842683883934
 30
0.0
  0
LINE
  5
105
100
AcDbEntity
100
AcDbLine
  8
txt
 62
256
370
-1
 48
1.0
  6
BYLAYER
 10
0.4512245217618285
 20
0.5200842683883934
 30
0.0
 11
0.4666739589707904
 21
0.5200842683883934
 31
0.0
  0
SPLINE
  5
106
  8
txt
 62
256
370
-1
 48
1.0
  6
BYLAYER
100
AcDbEntity
100
AcDbSpline
 70
8
 71
3
 72
8
 73
4
 74
0
 40
0.0
 40
0.0
 40
0.0
 40
0.0
 40
1.0
 40
1.0
 40
1.0
 40
1.0
 10
0.4666739589707904
 20
0.5200842683883934
 30
0.0
 10
0.4631627232414809
 20
0.5398876357586109
 30
0.0
 10
0.4493986802541317
 20
0.550842695520233
 30
0.0
 10
0.4309998018179174
 20
0.550842695520233
 30
0.0
  0
LINE
  5
107
100
AcDbEntity
100
AcDbLine
  8
txt
 62
256
370
-1
 48
1.0
  6
BYLAYER
 10
0.5507987758572969
 20
0.5500000010882869
 30
0.0
 11
0.4868942869232936
 21
0.5500000010882869
 31
0.0
  0
LINE
  5
108
100
AcDbEntity
100
AcDbLine
  8
txt
 62
256
370
-1
 48
1.0
  6
BYLAYER
 10
0.4868942869232936
 20
0.5500000010882869
 30
0.0
 11
0.4868942869232936
 21
0.450000001088287
 31
0.0
  0
LINE
  5
109
100
AcDbEntity
100
AcDbLine
  8
txt
 62
256
370
-1
 48
1.0
  6
BYLAYER
 10
0.4868942869232936
 20
0.450000001088287
 30
0.0
 11
0.5507987758572969
 21
0.450000001088287
 31
0.0
  0
LINE
  5
10A
100
AcDbEntity
100
AcDbLine
  8
txt
 62
256
370
-1
 48
1.0
  6
BYLAYER
 10
0.5507987758572969
 20
0.450000001088287
 30
0.0
 11
0.5507987758572969
 21
0.4636235954501219
 31
0.0
  0
LINE
  5
10B
100
AcDbEntity
100
AcDbLine
  8
txt
 62
256
370
-1
 48
1.0
  6
BYLAYER
 10
0.5507987758572969
 20
0.4636235954501219
 30
0.0
 11
0.5020628255417968
 21
0.4636235954501219
 31
0.0
  0
LINE
  5
10C
100
AcDbEntity
100
AcDbLine
  8
txt
 62
256
370
-1
 48
1.0
  6
BYLAYER
 10
0.5020628255417968
 20
0.4636235954501219
 30
0.0
 11
0.5020628255417968
 21
0.4935393241317251
 31
0.0
  0
LINE
  5
10D
100
AcDbEntity
100
AcDbLine
  8
txt
 62
256
370
-1
 48
1.0
  6
BYLAYER
 10
0.5020628255417968
 20
0.4935393241317251
 30
0.0
 11
0.5436358571125937
 21
0.4935393241317251
 31
0.0
  0
LINE
  5
10E
100
AcDbEntity
100
AcDbLine
  8
txt
 62
256
370
-1
 48
1.0
  6
BYLAYER
 10
0.5436358571125937
 20
0.4935393241317251
 30
0.0
 11
0.5436358571125937
 21
0.5071629198329902
 31
0.0
  0
LINE
  5
10F
100
AcDbEntity
100
AcDbLine
  8
txt
 62
256
370
-1
 48
1.0
  6
BYLAYER
 10
0.5436358571125937
 20
0.5071629198329902
 30
0.0
 11
0.5020628255417968
 21
0.5071629198329902
 31
0.0
  0
LINE
  5
110
100
AcDbEntity
100
AcDbLine
  8
txt
 62
256
370
-1
 48
1.0
  6
BYLAYER
 10
0.5020628255417968
 20
0.5071629198329902
 30
0.0
 11
0.5020628255417968
 21
0.5363764000293013
 31
0.0
  0
LINE
  5
111
100
AcDbEntity
100
AcDbLine
  8
txt
 62
256
370
-1
 48
1.0
  6
BYLAYER
 10
0.5020628255417968
 20
0.5363764000293013
 30
0.0
 11
0.5507987758572969
 21
0.5363764000293013
 31
0.0
  0
LINE
  5
112
100
AcDbEntity
100
AcDbLine
  8
txt
 62
256
370
-1
 48
1.0
  6
BYLAYER
 10
0.5507987758572969
 20
0.5363764000293013
 30
0.0
 11
0.5507987758572969
 21
0.5500000010882869
 31
0.0
  0
ENDSEC
  0
SECTION
  2
OBJECTS
  0
DICTIONARY
  5
C
100
AcDbDictionary
280
0
281
1
  3
ACAD_GROUP
350
D
  3
ACAD_LAYOUT
350
1A
  3
ACAD_MLINESTYLE
350
17
  3
ACAD_PLOTSETTINGS
350
19
  3
ACAD_PLOTSTYLENAME
350
E
  3
AcDbVariableDictionary
350
113
  3
QCAD_OBJECTS
350
114
  0
DICTIONARY
  5
D
100
AcDbDictionary
280
0
281
1
  0
ACDBDICTIONARYWDFLT
  5
E
100
AcDbDictionary
281
1
  3
Normal
350
F
100
AcDbDictionaryWithDefault
340
F
  0
ACDBPLACEHOLDER
  5
F
  0
DICTIONARY
  5
17
100
AcDbDictionary
280
0
281
1
  3
Standard
350
18
  0
MLINESTYLE
  5
18
100
AcDbMlineStyle
  2
STANDARD
 70
0
  3

 62
256
 51
90.0
 52
90.0
 71
2
 49
0.5
 62
256
  6
BYLAYER
 49
-0.5
 62
256
  6
BYLAYER
  0
DICTIONARY
  5
19
100
AcDbDictionary
280
0
281
1
  0
DICTIONARY
  5
1A
100
AcDbDictionary
281
1
  3
Layout1
350
1E
  3
Layout2
350
26
  3
Model
350
22
  0
LAYOUT
  5
1E
100
AcDbPlotSettings
  1

  2
none_device
  4

  6

 40
0.0
 41
0.0
 42
0.0
 43
0.0
 44
0.0
 45
0.0
 46
0.0
 47
0.0
 48
0.0
 49
0.0
140
0.0
141
0.0
142
1.0
143
1.0
 70
688
 72
0
 73
0
 74
5
  7

 75
16
147
1.0
148
0.0
149
0.0
100
AcDbLayout
  1
Layout1
 70
1
 71
1
 10
0.0
 20
0.0
 11
420.0
 21
297.0
 12
0.0
 22
0.0
 32
0.0
 14
100000000000000000000.0
 24
100000000000000000000.0
 34
100000000000000000000.0
 15
-100000000000000000000.0
 25
-100000000000000000000.0
 35
-100000000000000000000.0
146
0.0
 13
0.0
 23
0.0
 33
0.0
 16
1.0
 26
0.0
 36
0.0
 17
0.0
 27
1.0
 37
0.0
 76
0
330
1B
  0
LAYOUT
  5
22
100
AcDbPlotSettings
  1

  2
none_device
  4

  6

 40
0.0
 41
0.0
 42
0.0
 43
0.0
 44
0.0
 45
0.0
 46
0.0
 47
0.0
 48
0.0
 49
0.0
140
0.0
141
0.0
142
1.0
143
1.0
 70
1712
 72
0
 73
0
 74
0
  7

 75
0
147
1.0
148
0.0
149
0.0
100
AcDbLayout
  1
Model
 70
1
 71
0
 10
0.0
 20
0.0
 11
12.0
 21
9.0
 12
0.0
 22
0.0
 32
0.0
 14
0.0
 24
0.0
 34
0.0
 15
0.0
 25
0.0
 35
0.0
146
0.0
 13
0.0
 23
0.0
 33
0.0
 16
1.0
 26
0.0
 36
0.0
 17
0.0
 27
1.0
 37
0.0
 76
0
330
1F
  0
LAYOUT
  5
26
100
AcDbPlotSettings
  1

  2
none_device
  4

  6

 40
0.0
 41
0.0
 42
0.0
 43
0.0
 44
0.0
 45
0.0
 46
0.0
 47
0.0
 48
0.0
 49
0.0
140
0.0
141
0.0
142
1.0
143
1.0
 70
688
 72
0
 73
0
 74
5
  7

 75
16
147
1.0
148
0.0
149
0.0
100
AcDbLayout
  1
Layout2
 70
1
 71
2
 10
0.0
 20
0.0
 11
12.0
 21
9.0
 12
0.0
 22
0.0
 32
0.0
 14
0.0
 24
0.0
 34
0.0
 15
0.0
 25
0.0
 35
0.0
146
0.0
 13
0.0
 23
0.0
 33
0.0
 16
1.0
 26
0.0
 36
0.0
 17
0.0
 27
1.0
 37
0.0
 76
0
330
23
  0
DICTIONARY
  5
113
100
AcDbDictionary
281
1
  3
DIMASSOC
350
116
  3
HIDETEXT
350
115
  0
DICTIONARYVAR
  5
115
100
DictionaryVariables
280
0
  1
2
  0
DICTIONARYVAR
  5
116
100
DictionaryVariables
280
0
  1
1
  0
DICTIONARY
  5
114
100
AcDbDictionary
281
1
  3
ColorSettings/BackgroundColor
350
117
  3
ColorSettings/ColorMode
350
118
  3
Grid/DisplayGrid00
350
119
  3
Grid/DisplayGrid01
350
11A
  3
Grid/DisplayGrid02
350
11B
  3
Grid/DisplayGrid03
350
11C
  3
Grid/GridSpacingX00
350
11D
  3
Grid/GridSpacingX01
350
11E
  3
Grid/GridSpacingX02
350
11F
  3
Grid/GridSpacingX03
350
120
  3
Grid/GridSpacingY00
350
121
  3
Grid/GridSpacingY01
350
122
  3
Grid/GridSpacingY02
350
123
  3
Grid/GridSpacingY03
350
124
  3
Grid/IsometricGrid00
350
125
  3
Grid/IsometricGrid01
350
126
  3
Grid/IsometricGrid02
350
127
  3
Grid/IsometricGrid03
350
128
  3
Grid/IsometricProjection00
350
129
  3
Grid/IsometricProjection01
350
12A
  3
Grid/IsometricProjection02
350
12B
  3
Grid/IsometricProjection03
350
12C
  3
Grid/MetaGridSpacingX00
350
12D
  3
Grid/MetaGridSpacingX01
350
12E
  3
Grid/MetaGridSpacingX02
350
12F
  3
Grid/MetaGridSpacingX03
350
130
  3
Grid/MetaGridSpacingY00
350
131
  3
Grid/MetaGridSpacingY01
350
132
  3
Grid/MetaGridSpacingY02
350
133
  3
Grid/MetaGridSpacingY03
350
134
  3
MultiPageSettings/Columns
350
135
  3
MultiPageSettings/GlueMarginsBottom
350
136
  3
MultiPageSettings/GlueMarginsLeft
350
137
  3
MultiPageSettings/GlueMarginsRight
350
138
  3
MultiPageSettings/GlueMarginsTop
350
139
  3
MultiPageSettings/PrintCropMarks
350
13A
  3
MultiPageSettings/Rows
350
13B
  3
PageSettings/OffsetX
350
13C
  3
PageSettings/OffsetY
350
13D
  3
PageSettings/PageOrientation
350
13E
  3
PageSettings/PaperHeight
350
13F
  3
PageSettings/PaperWidth
350
140
  3
PageSettings/Scale
350
141
  3
PageSettings/ShowPaperBorders
350
142
  3
UnitSettings/PaperUnit
350
143
  0
XRECORD
  5
117
330
114
100
AcDbXrecord
280
1
1000
White
  0
XRECORD
  5
118
330
114
100
AcDbXrecord
280
1
1000
FullColor
  0
XRECORD
  5
119
330
114
100
AcDbXrecord
280
1
290
1
  0
XRECORD
  5
11A
330
114
100
AcDbXrecord
280
1
290
1
  0
XRECORD
  5
11B
330
114
100
AcDbXrecord
280
1
290
1
  0
XRECORD
  5
11C
330
114
100
AcDbXrecord
280
1
290
1
  0
XRECORD
  5
11D
330
114
100
AcDbXrecord
280
1
1000
auto
  0
XRECORD
  5
11E
330
114
100
AcDbXrecord
280
1
1000
auto
  0
XRECORD
  5
11F
330
114
100
AcDbXrecord
280
1
1000
auto
  0
XRECORD
  5
120
330
114
100
AcDbXrecord
280
1
1000
auto
  0
XRECORD
  5
121
330
114
100
AcDbXrecord
280
1
1000
auto
  0
XRECORD
  5
122
330
114
100
AcDbXrecord
280
1
1000
auto
  0
XRECORD
  5
123
330
114
100
AcDbXrecord
280
1
1000
auto
  0
XRECORD
  5
124
330
114
100
AcDbXrecord
280
1
1000
auto
  0
XRECORD
  5
125
330
114
100
AcDbXrecord
280
1
290
0
  0
XRECORD
  5
126
330
114
100
AcDbXrecord
280
1
290
0
  0
XRECORD
  5
127
330
114
100
AcDbXrecord
280
1
290
0
  0
XRECORD
  5
128
330
114
100
AcDbXrecord
280
1
290
0
  0
XRECORD
  5
129
330
114
100
AcDbXrecord
280
1
 90
0
  0
XRECORD
  5
12A
330
114
100
AcDbXrecord
280
1
 90
0
  0
XRECORD
  5
12B
330
114
100
AcDbXrecord
280
1
 90
0
  0
XRECORD
  5
12C
330
114
100
AcDbXrecord
280
1
 90
0
  0
XRECORD
  5
12D
330
114
100
AcDbXrecord
280
1
1000
auto
  0
XRECORD
  5
12E
330
114
100
AcDbXrecord
280
1
1000
auto
  0
XRECORD
  5
12F
330
114
100
AcDbXrecord
280
1
1000
auto
  0
XRECORD
  5
130
330
114
100
AcDbXrecord
280
1
1000
auto
  0
XRECORD
  5
131
330
114
100
AcDbXrecord
280
1
1000
auto
  0
XRECORD
  5
132
330
114
100
AcDbXrecord
280
1
1000
auto
  0
XRECORD
  5
133
330
114
100
AcDbXrecord
280
1
1000
auto
  0
XRECORD
  5
134
330
114
100
AcDbXrecord
280
1
1000
auto
  0
XRECORD
  5
135
330
114
100
AcDbXrecord
280
1
 90
1
  0
XRECORD
  5
136
330
114
100
AcDbXrecord
280
1
 40
0.5
  0
XRECORD
  5
137
330
114
100
AcDbXrecord
280
1
 40
0.5
  0
XRECORD
  5
138
330
114
100
AcDbXrecord
280
1
 40
0.5
  0
XRECORD
  5
139
330
114
100
AcDbXrecord
280
1
 40
0.5
  0
XRECORD
  5
13A
330
114
100
AcDbXrecord
280
1
290
0
  0
XRECORD
  5
13B
330
114
100
AcDbXrecord
280
1
 90
1
  0
XRECORD
  5
13C
330
114
100
AcDbXrecord
280
1
 40
0.0
  0
XRECORD
  5
13D
330
114
100
AcDbXrecord
280
1
 40
0.0
  0
XRECORD
  5
13E
330
114
100
AcDbXrecord
280
1
1000
Landscape
  0
XRECORD
  5
13F
330
114
100
AcDbXrecord
280
1
 40
11.0
  0
XRECORD
  5
140
330
114
100
AcDbXrecord
280
1
 40
8.5
  0
XRECORD
  5
141
330
114
100
AcDbXrecord
280
1
1000
1" = 1"
  0
XRECORD
  5
142
330
114
100
AcDbXrecord
280
1
290
1
  0
XRECORD
  5
143
330
114
100
AcDbXrecord
280
1
 90
1
  0
ENDSEC
  0
EOF
